<svg width="304" height="54" viewBox="0 0 304 54" fill="none" xmlns="http://www.w3.org/2000/svg">
<path d="M25.4188 10.8159H23.3068L21.1948 0.591917H22.5548L24.0428 8.23192L24.3228 9.70392H24.4668L24.7388 8.23192L26.2348 0.855918H28.1948L29.6908 8.23192L29.9628 9.70392H30.1068L30.3948 8.23192L31.8828 0.591917H33.2268L31.1228 10.8159H29.0268L27.8428 4.93592L27.2828 1.95192H27.1548L26.5868 4.93592L25.4188 10.8159ZM37.5108 10.9919C36.3215 10.9919 35.4255 10.7013 34.8228 10.1199C34.2201 9.53858 33.9188 8.70658 33.9188 7.62392V6.23192C33.9188 5.13325 34.1988 4.28792 34.7588 3.69592C35.3188 3.09858 36.1375 2.79992 37.2148 2.79992C37.9401 2.79992 38.5455 2.93592 39.0308 3.20792C39.5161 3.47458 39.8815 3.85592 40.1268 4.35192C40.3721 4.84792 40.4948 5.43992 40.4948 6.12792V6.41592C40.4948 6.58658 40.4868 6.75725 40.4708 6.92792C40.4601 7.09858 40.4441 7.26658 40.4228 7.43192H39.2308C39.2415 7.17592 39.2468 6.93325 39.2468 6.70392C39.2521 6.47458 39.2548 6.26392 39.2548 6.07192C39.2548 5.59725 39.1775 5.19725 39.0228 4.87192C38.8735 4.54125 38.6468 4.29058 38.3428 4.11992C38.0441 3.94392 37.6681 3.85592 37.2148 3.85592C36.5428 3.85592 36.0388 4.05058 35.7028 4.43992C35.3668 4.82925 35.1988 5.38658 35.1988 6.11192V6.85592L35.2068 7.01592V7.75992C35.2068 8.08525 35.2548 8.37858 35.3508 8.63992C35.4468 8.90125 35.5961 9.12792 35.7988 9.31992C36.0068 9.50658 36.2681 9.65058 36.5828 9.75192C36.9028 9.84792 37.2815 9.89592 37.7188 9.89592C38.2255 9.89592 38.6975 9.82925 39.1348 9.69592C39.5721 9.56258 39.9828 9.38125 40.3668 9.15192L40.2468 10.2719C39.9001 10.4906 39.4975 10.6666 39.0388 10.7999C38.5801 10.9279 38.0708 10.9919 37.5108 10.9919ZM40.1508 7.43192H34.5988V6.45592H40.1508V7.43192ZM56.6694 10.8159H55.3734V5.92792C55.3734 5.51725 55.3201 5.16258 55.2134 4.86392C55.1121 4.55992 54.9414 4.32525 54.7014 4.15992C54.4668 3.99458 54.1494 3.91192 53.7494 3.91192C53.3708 3.91192 53.0428 3.98925 52.7654 4.14392C52.4881 4.29858 52.2641 4.50658 52.0934 4.76792C51.9228 5.02392 51.8028 5.31725 51.7334 5.64792L51.5334 4.72792H51.6934C51.7788 4.39192 51.9228 4.07992 52.1254 3.79192C52.3281 3.50392 52.6028 3.27192 52.9494 3.09592C53.2961 2.91992 53.7254 2.83192 54.2374 2.83192C54.8188 2.83192 55.2854 2.94658 55.6374 3.17592C55.9948 3.40525 56.2561 3.74125 56.4214 4.18392C56.5868 4.62125 56.6694 5.15458 56.6694 5.78392V10.8159ZM46.9174 10.8159H45.6214V3.00792H46.9174L46.8614 4.87992L46.9174 4.95992V10.8159ZM51.7894 10.8159H50.5014V5.92792C50.5014 5.51725 50.4481 5.16258 50.3414 4.86392C50.2401 4.55992 50.0721 4.32525 49.8374 4.15992C49.6028 3.99458 49.2854 3.91192 48.8854 3.91192C48.5014 3.91192 48.1708 3.98925 47.8934 4.14392C47.6161 4.29858 47.3921 4.50925 47.2214 4.77592C47.0508 5.03725 46.9308 5.33592 46.8614 5.67192L46.6214 4.75192H46.9094C46.9894 4.39992 47.1281 4.07992 47.3254 3.79192C47.5228 3.49858 47.7894 3.26658 48.1254 3.09592C48.4668 2.91992 48.8801 2.83192 49.3654 2.83192C50.0854 2.83192 50.6321 3.01858 51.0054 3.39192C51.3841 3.76525 51.6214 4.30925 51.7174 5.02392C51.7441 5.13058 51.7628 5.24792 51.7734 5.37592C51.7841 5.49858 51.7894 5.62125 51.7894 5.74392V10.8159ZM61.9639 10.9919C60.7746 10.9919 59.8786 10.7013 59.2759 10.1199C58.6733 9.53858 58.3719 8.70658 58.3719 7.62392V6.23192C58.3719 5.13325 58.6519 4.28792 59.2119 3.69592C59.7719 3.09858 60.5906 2.79992 61.6679 2.79992C62.3933 2.79992 62.9986 2.93592 63.4839 3.20792C63.9693 3.47458 64.3346 3.85592 64.5799 4.35192C64.8253 4.84792 64.9479 5.43992 64.9479 6.12792V6.41592C64.9479 6.58658 64.9399 6.75725 64.9239 6.92792C64.9133 7.09858 64.8973 7.26658 64.8759 7.43192H63.6839C63.6946 7.17592 63.6999 6.93325 63.6999 6.70392C63.7053 6.47458 63.7079 6.26392 63.7079 6.07192C63.7079 5.59725 63.6306 5.19725 63.4759 4.87192C63.3266 4.54125 63.0999 4.29058 62.7959 4.11992C62.4973 3.94392 62.1213 3.85592 61.6679 3.85592C60.9959 3.85592 60.4919 4.05058 60.1559 4.43992C59.8199 4.82925 59.6519 5.38658 59.6519 6.11192V6.85592L59.6599 7.01592V7.75992C59.6599 8.08525 59.7079 8.37858 59.8039 8.63992C59.8999 8.90125 60.0493 9.12792 60.2519 9.31992C60.4599 9.50658 60.7213 9.65058 61.0359 9.75192C61.3559 9.84792 61.7346 9.89592 62.1719 9.89592C62.6786 9.89592 63.1506 9.82925 63.5879 9.69592C64.0253 9.56258 64.4359 9.38125 64.8199 9.15192L64.6999 10.2719C64.3533 10.4906 63.9506 10.6666 63.4919 10.7999C63.0333 10.9279 62.5239 10.9919 61.9639 10.9919ZM64.6039 7.43192H59.0519V6.45592H64.6039V7.43192ZM67.9963 10.8159H66.7083V0.215918H67.9963V10.8159ZM72.9927 10.9759C72.39 10.9759 71.9047 10.8853 71.5367 10.7039C71.1687 10.5226 70.902 10.2479 70.7367 9.87992C70.5713 9.51192 70.4887 9.05325 70.4887 8.50392V3.57592H71.7687V8.35192C71.7687 8.86392 71.886 9.24258 72.1207 9.48792C72.3553 9.72792 72.75 9.84792 73.3047 9.84792C73.6193 9.84792 73.9207 9.81325 74.2087 9.74392C74.502 9.67458 74.7767 9.57592 75.0327 9.44792L74.9127 10.5599C74.662 10.6879 74.3687 10.7893 74.0327 10.8639C73.6967 10.9386 73.35 10.9759 72.9927 10.9759ZM74.8327 4.15992H69.2087V3.11992H74.9527L74.8327 4.15992ZM71.7367 3.24792H70.4967L70.4887 1.05592L71.7927 0.887918L71.7367 3.24792ZM82.7271 10.9759C82.1244 10.9759 81.6391 10.8853 81.2711 10.7039C80.9031 10.5226 80.6364 10.2479 80.4711 9.87992C80.3057 9.51192 80.2231 9.05325 80.2231 8.50392V3.57592H81.5031V8.35192C81.5031 8.86392 81.6204 9.24258 81.8551 9.48792C82.0897 9.72792 82.4844 9.84792 83.0391 9.84792C83.3537 9.84792 83.6551 9.81325 83.9431 9.74392C84.2364 9.67458 84.5111 9.57592 84.7671 9.44792L84.6471 10.5599C84.3964 10.6879 84.1031 10.7893 83.7671 10.8639C83.4311 10.9386 83.0844 10.9759 82.7271 10.9759ZM84.5671 4.15992H78.9431V3.11992H84.6871L84.5671 4.15992ZM81.4711 3.24792H80.2311L80.2231 1.05592L81.5271 0.887918L81.4711 3.24792ZM92.7352 10.8159H91.4392V5.95992C91.4392 5.53858 91.3805 5.17592 91.2632 4.87192C91.1512 4.56792 90.9645 4.33325 90.7032 4.16792C90.4472 3.99725 90.0952 3.91192 89.6472 3.91192C89.2365 3.91192 88.8818 3.98925 88.5832 4.14392C88.2845 4.29858 88.0418 4.50925 87.8552 4.77592C87.6738 5.03725 87.5458 5.33592 87.4712 5.67192L87.1832 4.75192H87.5192C87.5992 4.39992 87.7458 4.07992 87.9592 3.79192C88.1725 3.49858 88.4578 3.26658 88.8152 3.09592C89.1778 2.91992 89.6178 2.83192 90.1352 2.83192C90.7538 2.83192 91.2525 2.94925 91.6312 3.18392C92.0152 3.41858 92.2952 3.75725 92.4712 4.19992C92.6472 4.63725 92.7352 5.17592 92.7352 5.81592V10.8159ZM87.5112 10.8159H86.2152V0.215918H87.5032V2.75992L87.4632 4.99992L87.5112 5.10392V10.8159ZM98.0264 10.9919C96.8371 10.9919 95.9411 10.7013 95.3384 10.1199C94.7358 9.53858 94.4344 8.70658 94.4344 7.62392V6.23192C94.4344 5.13325 94.7144 4.28792 95.2744 3.69592C95.8344 3.09858 96.6531 2.79992 97.7304 2.79992C98.4558 2.79992 99.0611 2.93592 99.5464 3.20792C100.032 3.47458 100.397 3.85592 100.642 4.35192C100.888 4.84792 101.01 5.43992 101.01 6.12792V6.41592C101.01 6.58658 101.002 6.75725 100.986 6.92792C100.976 7.09858 100.96 7.26658 100.938 7.43192H99.7464C99.7571 7.17592 99.7624 6.93325 99.7624 6.70392C99.7678 6.47458 99.7704 6.26392 99.7704 6.07192C99.7704 5.59725 99.6931 5.19725 99.5384 4.87192C99.3891 4.54125 99.1624 4.29058 98.8584 4.11992C98.5598 3.94392 98.1838 3.85592 97.7304 3.85592C97.0584 3.85592 96.5544 4.05058 96.2184 4.43992C95.8824 4.82925 95.7144 5.38658 95.7144 6.11192V6.85592L95.7224 7.01592V7.75992C95.7224 8.08525 95.7704 8.37858 95.8664 8.63992C95.9624 8.90125 96.1118 9.12792 96.3144 9.31992C96.5224 9.50658 96.7838 9.65058 97.0984 9.75192C97.4184 9.84792 97.7971 9.89592 98.2344 9.89592C98.7411 9.89592 99.2131 9.82925 99.6504 9.69592C100.088 9.56258 100.498 9.38125 100.882 9.15192L100.762 10.2719C100.416 10.4906 100.013 10.6666 99.5544 10.7999C99.0958 10.9279 98.5864 10.9919 98.0264 10.9919ZM100.666 7.43192H95.1144V6.45592H100.666V7.43192ZM108.761 -8.29697e-05C109.161 -8.29697e-05 109.518 0.0372505 109.833 0.111917C110.153 0.181251 110.446 0.269251 110.713 0.375917L110.841 1.39192C110.58 1.29592 110.316 1.22125 110.049 1.16792C109.788 1.10925 109.492 1.07992 109.161 1.07992C108.761 1.07992 108.438 1.13325 108.193 1.23992C107.953 1.34125 107.78 1.48792 107.673 1.67992C107.572 1.86658 107.521 2.09325 107.521 2.35992V2.39992C107.521 2.58658 107.545 2.76525 107.593 2.93592C107.641 3.10125 107.694 3.25325 107.753 3.39192L106.881 3.42392V3.26392C106.716 3.13592 106.569 2.95725 106.441 2.72792C106.318 2.49858 106.257 2.23192 106.257 1.92792V1.88792C106.257 1.31725 106.46 0.861251 106.865 0.519917C107.27 0.173251 107.902 -8.29697e-05 108.761 -8.29697e-05ZM107.809 10.8159H106.521V3.70392H107.809V10.8159ZM110.689 4.33592H105.233V3.30392L107.017 3.31192L107.545 3.30392H110.809L110.689 4.33592ZM113.473 10.8159H112.177V0.215918H113.473V10.8159ZM121.541 10.8159H120.253L120.309 8.91992L120.261 8.71992V6.23192L120.269 5.77592C120.269 5.14125 120.107 4.67192 119.781 4.36792C119.461 4.06392 118.952 3.91192 118.253 3.91192C117.693 3.91192 117.179 3.99192 116.709 4.15192C116.245 4.31192 115.832 4.49858 115.469 4.71192L115.589 3.60792C115.792 3.48525 116.032 3.36525 116.309 3.24792C116.592 3.12525 116.912 3.02392 117.269 2.94392C117.632 2.86392 118.029 2.82392 118.461 2.82392C119.021 2.82392 119.496 2.89325 119.885 3.03192C120.28 3.16525 120.597 3.35992 120.837 3.61592C121.083 3.87192 121.261 4.18125 121.373 4.54392C121.485 4.90658 121.541 5.31192 121.541 5.75992V10.8159ZM117.565 10.9839C116.792 10.9839 116.197 10.7973 115.781 10.4239C115.371 10.0453 115.165 9.50658 115.165 8.80792V8.57592C115.165 7.85592 115.387 7.31992 115.829 6.96792C116.277 6.61058 116.987 6.36258 117.957 6.22392L120.429 5.87192L120.501 6.81592L118.117 7.15992C117.52 7.24525 117.093 7.39192 116.837 7.59992C116.581 7.80258 116.453 8.10392 116.453 8.50392V8.63192C116.453 9.04258 116.579 9.35725 116.829 9.57592C117.085 9.79458 117.467 9.90392 117.973 9.90392C118.421 9.90392 118.805 9.82658 119.125 9.67192C119.445 9.51725 119.704 9.30925 119.901 9.04792C120.099 8.78658 120.232 8.49592 120.301 8.17592L120.501 9.05592H120.253C120.179 9.39725 120.037 9.71458 119.829 10.0079C119.627 10.3013 119.341 10.5386 118.973 10.7199C118.605 10.8959 118.136 10.9839 117.565 10.9839ZM130.152 10.8159H128.6L125.512 7.17592H124.688V6.16792H125.512L128.472 3.00792H130.008L126.464 6.77592V6.46392L130.152 10.8159ZM124.816 10.8159H123.528V0.215918H124.816V10.8159ZM134.183 10.9919C132.993 10.9919 132.097 10.7013 131.495 10.1199C130.892 9.53858 130.591 8.70658 130.591 7.62392V6.23192C130.591 5.13325 130.871 4.28792 131.431 3.69592C131.991 3.09858 132.809 2.79992 133.887 2.79992C134.612 2.79992 135.217 2.93592 135.703 3.20792C136.188 3.47458 136.553 3.85592 136.799 4.35192C137.044 4.84792 137.167 5.43992 137.167 6.12792V6.41592C137.167 6.58658 137.159 6.75725 137.143 6.92792C137.132 7.09858 137.116 7.26658 137.095 7.43192H135.903C135.913 7.17592 135.919 6.93325 135.919 6.70392C135.924 6.47458 135.927 6.26392 135.927 6.07192C135.927 5.59725 135.849 5.19725 135.695 4.87192C135.545 4.54125 135.319 4.29058 135.015 4.11992C134.716 3.94392 134.34 3.85592 133.887 3.85592C133.215 3.85592 132.711 4.05058 132.375 4.43992C132.039 4.82925 131.871 5.38658 131.871 6.11192V6.85592L131.879 7.01592V7.75992C131.879 8.08525 131.927 8.37858 132.023 8.63992C132.119 8.90125 132.268 9.12792 132.471 9.31992C132.679 9.50658 132.94 9.65058 133.255 9.75192C133.575 9.84792 133.953 9.89592 134.391 9.89592C134.897 9.89592 135.369 9.82925 135.807 9.69592C136.244 9.56258 136.655 9.38125 137.039 9.15192L136.919 10.2719C136.572 10.4906 136.169 10.6666 135.711 10.7999C135.252 10.9279 134.743 10.9919 134.183 10.9919ZM136.823 7.43192H131.271V6.45592H136.823V7.43192ZM141.358 10.9919C140.729 10.9919 140.18 10.9253 139.71 10.7919C139.241 10.6533 138.852 10.5039 138.542 10.3439L138.422 9.14392C138.812 9.34658 139.238 9.52258 139.702 9.67192C140.172 9.82125 140.702 9.89592 141.294 9.89592C141.897 9.89592 142.35 9.79992 142.654 9.60792C142.958 9.41592 143.11 9.13058 143.11 8.75192V8.66392C143.11 8.41858 143.052 8.21592 142.934 8.05592C142.822 7.89592 142.617 7.75458 142.318 7.63192C142.02 7.50925 141.596 7.38658 141.046 7.26392C140.39 7.11992 139.873 6.95192 139.494 6.75992C139.116 6.56258 138.844 6.31992 138.678 6.03192C138.518 5.74392 138.438 5.39192 138.438 4.97592V4.90392C138.438 4.22125 138.676 3.70392 139.15 3.35192C139.625 2.99992 140.34 2.82392 141.294 2.82392C141.908 2.82392 142.438 2.89325 142.886 3.03192C143.34 3.17058 143.71 3.32525 143.998 3.49592L144.118 4.59192C143.772 4.38925 143.374 4.22125 142.926 4.08792C142.478 3.95458 141.974 3.88792 141.414 3.88792C141.009 3.88792 140.681 3.93058 140.43 4.01592C140.18 4.09592 139.998 4.21325 139.886 4.36792C139.774 4.51725 139.718 4.69858 139.718 4.91192V4.97592C139.718 5.21058 139.774 5.41058 139.886 5.57592C139.998 5.73592 140.198 5.87725 140.486 5.99992C140.78 6.11725 141.185 6.23192 141.702 6.34392C142.369 6.47725 142.897 6.63725 143.286 6.82392C143.681 7.01058 143.964 7.24792 144.134 7.53592C144.305 7.81858 144.39 8.18392 144.39 8.63192V8.76792C144.39 9.50392 144.134 10.0586 143.622 10.4319C143.11 10.8053 142.356 10.9919 141.358 10.9919ZM155.307 10.8159H154.019L154.075 8.91992L154.027 8.71992V6.23192L154.035 5.77592C154.035 5.14125 153.872 4.67192 153.547 4.36792C153.227 4.06392 152.718 3.91192 152.019 3.91192C151.459 3.91192 150.944 3.99192 150.475 4.15192C150.011 4.31192 149.598 4.49858 149.235 4.71192L149.355 3.60792C149.558 3.48525 149.798 3.36525 150.075 3.24792C150.358 3.12525 150.678 3.02392 151.035 2.94392C151.398 2.86392 151.795 2.82392 152.227 2.82392C152.787 2.82392 153.262 2.89325 153.651 3.03192C154.046 3.16525 154.363 3.35992 154.603 3.61592C154.848 3.87192 155.027 4.18125 155.139 4.54392C155.251 4.90658 155.307 5.31192 155.307 5.75992V10.8159ZM151.331 10.9839C150.558 10.9839 149.963 10.7973 149.547 10.4239C149.136 10.0453 148.931 9.50658 148.931 8.80792V8.57592C148.931 7.85592 149.152 7.31992 149.595 6.96792C150.043 6.61058 150.752 6.36258 151.723 6.22392L154.195 5.87192L154.267 6.81592L151.883 7.15992C151.286 7.24525 150.859 7.39192 150.603 7.59992C150.347 7.80258 150.219 8.10392 150.219 8.50392V8.63192C150.219 9.04258 150.344 9.35725 150.595 9.57592C150.851 9.79458 151.232 9.90392 151.739 9.90392C152.187 9.90392 152.571 9.82658 152.891 9.67192C153.211 9.51725 153.47 9.30925 153.667 9.04792C153.864 8.78658 153.998 8.49592 154.067 8.17592L154.267 9.05592H154.019C153.944 9.39725 153.803 9.71458 153.595 10.0079C153.392 10.3013 153.107 10.5386 152.739 10.7199C152.371 10.8959 151.902 10.9839 151.331 10.9839ZM163.813 10.8159H162.517V5.95992C162.517 5.53858 162.459 5.17592 162.341 4.87192C162.229 4.56792 162.043 4.33325 161.781 4.16792C161.525 3.99725 161.173 3.91192 160.725 3.91192C160.315 3.91192 159.957 3.98925 159.653 4.14392C159.355 4.29858 159.112 4.50925 158.925 4.77592C158.739 5.03725 158.608 5.33592 158.533 5.67192L158.301 4.75192H158.581C158.667 4.39992 158.816 4.07992 159.029 3.79192C159.243 3.49858 159.528 3.26658 159.885 3.09592C160.248 2.91992 160.691 2.83192 161.213 2.83192C161.832 2.83192 162.331 2.94925 162.709 3.18392C163.093 3.41858 163.373 3.75725 163.549 4.19992C163.725 4.63725 163.813 5.17592 163.813 5.81592V10.8159ZM158.589 10.8159H157.293V3.00792H158.589L158.533 4.87992L158.589 4.95192V10.8159ZM168.401 10.9839C167.462 10.9839 166.747 10.6933 166.257 10.1119C165.766 9.53058 165.521 8.68258 165.521 7.56792V6.27992C165.521 5.15992 165.769 4.30658 166.265 3.71992C166.761 3.12792 167.491 2.83192 168.457 2.83192C168.937 2.83192 169.353 2.91458 169.705 3.07992C170.057 3.23992 170.342 3.46658 170.561 3.75992C170.779 4.05325 170.926 4.39992 171.001 4.79992H171.425L171.041 5.99192C171.025 5.53325 170.921 5.14925 170.729 4.83992C170.542 4.52525 170.286 4.28792 169.961 4.12792C169.641 3.96792 169.273 3.88792 168.857 3.88792C168.195 3.88792 167.689 4.07992 167.337 4.46392C166.99 4.84792 166.817 5.41325 166.817 6.15992V7.64792C166.817 8.38392 166.99 8.94392 167.337 9.32792C167.689 9.71192 168.195 9.90392 168.857 9.90392C169.251 9.90392 169.601 9.82925 169.905 9.67992C170.209 9.52525 170.459 9.31458 170.657 9.04792C170.859 8.77592 170.998 8.46925 171.073 8.12792L171.393 9.05592H171.009C170.934 9.40792 170.79 9.73058 170.577 10.0239C170.369 10.3173 170.086 10.5519 169.729 10.7279C169.377 10.8986 168.934 10.9839 168.401 10.9839ZM172.305 10.8159H171.009L171.065 8.92792L171.041 8.51192V5.24792L171.049 4.97592L171.017 2.75992V0.215918H172.305V10.8159ZM179.145 10.8159H177.849V3.00792H179.145V10.8159ZM178.497 1.72792C178.23 1.72792 178.03 1.65858 177.897 1.51992C177.769 1.37592 177.705 1.18125 177.705 0.935918V0.895918C177.705 0.645251 177.769 0.450584 177.897 0.311917C178.03 0.173251 178.23 0.103917 178.497 0.103917C178.763 0.103917 178.963 0.173251 179.097 0.311917C179.23 0.450584 179.297 0.645251 179.297 0.895918V0.935918C179.297 1.18658 179.23 1.38125 179.097 1.51992C178.963 1.65858 178.763 1.72792 178.497 1.72792ZM187.813 10.8159H186.517V5.95992C186.517 5.53858 186.459 5.17592 186.341 4.87192C186.229 4.56792 186.043 4.33325 185.781 4.16792C185.525 3.99725 185.173 3.91192 184.725 3.91192C184.315 3.91192 183.957 3.98925 183.653 4.14392C183.355 4.29858 183.112 4.50925 182.925 4.77592C182.739 5.03725 182.608 5.33592 182.533 5.67192L182.301 4.75192H182.581C182.667 4.39992 182.816 4.07992 183.029 3.79192C183.243 3.49858 183.528 3.26658 183.885 3.09592C184.248 2.91992 184.691 2.83192 185.213 2.83192C185.832 2.83192 186.331 2.94925 186.709 3.18392C187.093 3.41858 187.373 3.75725 187.549 4.19992C187.725 4.63725 187.813 5.17592 187.813 5.81592V10.8159ZM182.589 10.8159H181.293V3.00792H182.589L182.533 4.87992L182.589 4.95192V10.8159ZM191.369 9.75192H190.073V3.00792H191.369V9.75192ZM190.721 1.72792C190.454 1.72792 190.254 1.65858 190.121 1.51992C189.993 1.37592 189.929 1.18125 189.929 0.935918V0.895918C189.929 0.645251 189.993 0.450584 190.121 0.311917C190.254 0.173251 190.454 0.103917 190.721 0.103917C190.987 0.103917 191.187 0.173251 191.321 0.311917C191.454 0.450584 191.521 0.645251 191.521 0.895918V0.935918C191.521 1.18658 191.454 1.38125 191.321 1.51992C191.187 1.65858 190.987 1.72792 190.721 1.72792ZM189.121 13.6719C188.891 13.6719 188.675 13.6506 188.473 13.6079C188.27 13.5706 188.097 13.5253 187.953 13.4719L187.841 12.3999C187.99 12.4693 188.147 12.5199 188.313 12.5519C188.473 12.5893 188.641 12.6079 188.817 12.6079C189.297 12.6079 189.625 12.4773 189.801 12.2159C189.982 11.9599 190.073 11.5893 190.073 11.1039V8.63192H191.369V11.1679C191.369 11.6906 191.297 12.1386 191.153 12.5119C191.009 12.8853 190.771 13.1706 190.441 13.3679C190.11 13.5706 189.67 13.6719 189.121 13.6719ZM196.792 10.9919C195.603 10.9919 194.707 10.7013 194.104 10.1199C193.501 9.53858 193.2 8.70658 193.2 7.62392V6.23192C193.2 5.13325 193.48 4.28792 194.04 3.69592C194.6 3.09858 195.419 2.79992 196.496 2.79992C197.221 2.79992 197.827 2.93592 198.312 3.20792C198.797 3.47458 199.163 3.85592 199.408 4.35192C199.653 4.84792 199.776 5.43992 199.776 6.12792V6.41592C199.776 6.58658 199.768 6.75725 199.752 6.92792C199.741 7.09858 199.725 7.26658 199.704 7.43192H198.512C198.523 7.17592 198.528 6.93325 198.528 6.70392C198.533 6.47458 198.536 6.26392 198.536 6.07192C198.536 5.59725 198.459 5.19725 198.304 4.87192C198.155 4.54125 197.928 4.29058 197.624 4.11992C197.325 3.94392 196.949 3.85592 196.496 3.85592C195.824 3.85592 195.32 4.05058 194.984 4.43992C194.648 4.82925 194.48 5.38658 194.48 6.11192V6.85592L194.488 7.01592V7.75992C194.488 8.08525 194.536 8.37858 194.632 8.63992C194.728 8.90125 194.877 9.12792 195.08 9.31992C195.288 9.50658 195.549 9.65058 195.864 9.75192C196.184 9.84792 196.563 9.89592 197 9.89592C197.507 9.89592 197.979 9.82925 198.416 9.69592C198.853 9.56258 199.264 9.38125 199.648 9.15192L199.528 10.2719C199.181 10.4906 198.779 10.6666 198.32 10.7999C197.861 10.9279 197.352 10.9919 196.792 10.9919ZM199.432 7.43192H193.88V6.45592H199.432V7.43192ZM204.489 10.9919C203.369 10.9919 202.534 10.6906 201.985 10.0879C201.441 9.47992 201.169 8.62125 201.169 7.51192V6.29592C201.169 5.18125 201.443 4.32525 201.993 3.72792C202.542 3.12525 203.374 2.82392 204.489 2.82392C204.819 2.82392 205.121 2.85592 205.393 2.91992C205.665 2.97858 205.907 3.05858 206.121 3.15992C206.339 3.25592 206.523 3.35725 206.673 3.46392L206.785 4.59192C206.534 4.39992 206.235 4.23725 205.889 4.10392C205.547 3.97058 205.145 3.90392 204.681 3.90392C203.934 3.90392 203.377 4.11192 203.009 4.52792C202.646 4.93858 202.465 5.53858 202.465 6.32792V7.47992C202.465 8.25325 202.646 8.84792 203.009 9.26392C203.377 9.67992 203.934 9.88792 204.681 9.88792C205.161 9.88792 205.574 9.82125 205.921 9.68792C206.273 9.55458 206.585 9.39192 206.857 9.19992L206.737 10.3439C206.502 10.5039 206.195 10.6533 205.817 10.7919C205.438 10.9253 204.995 10.9919 204.489 10.9919ZM211.321 10.9759C210.718 10.9759 210.233 10.8853 209.865 10.7039C209.497 10.5226 209.23 10.2479 209.065 9.87992C208.899 9.51192 208.817 9.05325 208.817 8.50392V3.57592H210.097V8.35192C210.097 8.86392 210.214 9.24258 210.449 9.48792C210.683 9.72792 211.078 9.84792 211.633 9.84792C211.947 9.84792 212.249 9.81325 212.537 9.74392C212.83 9.67458 213.105 9.57592 213.361 9.44792L213.241 10.5599C212.99 10.6879 212.697 10.7893 212.361 10.8639C212.025 10.9386 211.678 10.9759 211.321 10.9759ZM213.161 4.15992H207.537V3.11992H213.281L213.161 4.15992ZM210.065 3.24792H208.825L208.817 1.05592L210.121 0.887918L210.065 3.24792ZM221.055 10.9759C220.453 10.9759 219.967 10.8853 219.599 10.7039C219.231 10.5226 218.965 10.2479 218.799 9.87992C218.634 9.51192 218.551 9.05325 218.551 8.50392V3.57592H219.831V8.35192C219.831 8.86392 219.949 9.24258 220.183 9.48792C220.418 9.72792 220.813 9.84792 221.367 9.84792C221.682 9.84792 221.983 9.81325 222.271 9.74392C222.565 9.67458 222.839 9.57592 223.095 9.44792L222.975 10.5599C222.725 10.6879 222.431 10.7893 222.095 10.8639C221.759 10.9386 221.413 10.9759 221.055 10.9759ZM222.895 4.15992H217.271V3.11992H223.015L222.895 4.15992ZM219.799 3.24792H218.559L218.551 1.05592L219.855 0.887918L219.799 3.24792ZM231.063 10.8159H229.767V5.95992C229.767 5.53858 229.709 5.17592 229.591 4.87192C229.479 4.56792 229.293 4.33325 229.031 4.16792C228.775 3.99725 228.423 3.91192 227.975 3.91192C227.565 3.91192 227.21 3.98925 226.911 4.14392C226.613 4.29858 226.37 4.50925 226.183 4.77592C226.002 5.03725 225.874 5.33592 225.799 5.67192L225.511 4.75192H225.847C225.927 4.39992 226.074 4.07992 226.287 3.79192C226.501 3.49858 226.786 3.26658 227.143 3.09592C227.506 2.91992 227.946 2.83192 228.463 2.83192C229.082 2.83192 229.581 2.94925 229.959 3.18392C230.343 3.41858 230.623 3.75725 230.799 4.19992C230.975 4.63725 231.063 5.17592 231.063 5.81592V10.8159ZM225.839 10.8159H224.543V0.215918H225.831V2.75992L225.791 4.99992L225.839 5.10392V10.8159ZM236.355 10.9919C235.165 10.9919 234.269 10.7013 233.667 10.1199C233.064 9.53858 232.763 8.70658 232.763 7.62392V6.23192C232.763 5.13325 233.043 4.28792 233.603 3.69592C234.163 3.09858 234.981 2.79992 236.059 2.79992C236.784 2.79992 237.389 2.93592 237.875 3.20792C238.36 3.47458 238.725 3.85592 238.971 4.35192C239.216 4.84792 239.339 5.43992 239.339 6.12792V6.41592C239.339 6.58658 239.331 6.75725 239.315 6.92792C239.304 7.09858 239.288 7.26658 239.267 7.43192H238.075C238.085 7.17592 238.091 6.93325 238.091 6.70392C238.096 6.47458 238.099 6.26392 238.099 6.07192C238.099 5.59725 238.021 5.19725 237.867 4.87192C237.717 4.54125 237.491 4.29058 237.187 4.11992C236.888 3.94392 236.512 3.85592 236.059 3.85592C235.387 3.85592 234.883 4.05058 234.547 4.43992C234.211 4.82925 234.043 5.38658 234.043 6.11192V6.85592L234.051 7.01592V7.75992C234.051 8.08525 234.099 8.37858 234.195 8.63992C234.291 8.90125 234.44 9.12792 234.643 9.31992C234.851 9.50658 235.112 9.65058 235.427 9.75192C235.747 9.84792 236.125 9.89592 236.563 9.89592C237.069 9.89592 237.541 9.82925 237.979 9.69592C238.416 9.56258 238.827 9.38125 239.211 9.15192L239.091 10.2719C238.744 10.4906 238.341 10.6666 237.883 10.7999C237.424 10.9279 236.915 10.9919 236.355 10.9919ZM238.995 7.43192H233.443V6.45592H238.995V7.43192ZM252.107 10.8159H250.811V5.92792C250.811 5.51725 250.758 5.16258 250.651 4.86392C250.55 4.55992 250.379 4.32525 250.139 4.15992C249.904 3.99458 249.587 3.91192 249.187 3.91192C248.808 3.91192 248.48 3.98925 248.203 4.14392C247.926 4.29858 247.702 4.50658 247.531 4.76792C247.36 5.02392 247.24 5.31725 247.171 5.64792L246.971 4.72792H247.131C247.216 4.39192 247.36 4.07992 247.563 3.79192C247.766 3.50392 248.04 3.27192 248.387 3.09592C248.734 2.91992 249.163 2.83192 249.675 2.83192C250.256 2.83192 250.723 2.94658 251.075 3.17592C251.432 3.40525 251.694 3.74125 251.859 4.18392C252.024 4.62125 252.107 5.15458 252.107 5.78392V10.8159ZM242.355 10.8159H241.059V3.00792H242.355L242.299 4.87992L242.355 4.95992V10.8159ZM247.227 10.8159H245.939V5.92792C245.939 5.51725 245.886 5.16258 245.779 4.86392C245.678 4.55992 245.51 4.32525 245.275 4.15992C245.04 3.99458 244.723 3.91192 244.323 3.91192C243.939 3.91192 243.608 3.98925 243.331 4.14392C243.054 4.29858 242.83 4.50925 242.659 4.77592C242.488 5.03725 242.368 5.33592 242.299 5.67192L242.059 4.75192H242.347C242.427 4.39992 242.566 4.07992 242.763 3.79192C242.96 3.49858 243.227 3.26658 243.563 3.09592C243.904 2.91992 244.318 2.83192 244.803 2.83192C245.523 2.83192 246.07 3.01858 246.443 3.39192C246.822 3.76525 247.059 4.30925 247.155 5.02392C247.182 5.13058 247.2 5.24792 247.211 5.37592C247.222 5.49858 247.227 5.62125 247.227 5.74392V10.8159ZM258.848 10.8159H257.552V3.00792H258.848V10.8159ZM258.2 1.72792C257.933 1.72792 257.733 1.65858 257.6 1.51992C257.472 1.37592 257.408 1.18125 257.408 0.935918V0.895918C257.408 0.645251 257.472 0.450584 257.6 0.311917C257.733 0.173251 257.933 0.103917 258.2 0.103917C258.466 0.103917 258.666 0.173251 258.8 0.311917C258.933 0.450584 259 0.645251 259 0.895918V0.935918C259 1.18658 258.933 1.38125 258.8 1.51992C258.666 1.65858 258.466 1.72792 258.2 1.72792ZM267.516 10.8159H266.22V5.95992C266.22 5.53858 266.162 5.17592 266.044 4.87192C265.932 4.56792 265.746 4.33325 265.484 4.16792C265.228 3.99725 264.876 3.91192 264.428 3.91192C264.018 3.91192 263.66 3.98925 263.356 4.14392C263.058 4.29858 262.815 4.50925 262.628 4.77592C262.442 5.03725 262.311 5.33592 262.236 5.67192L262.004 4.75192H262.284C262.37 4.39992 262.519 4.07992 262.732 3.79192C262.946 3.49858 263.231 3.26658 263.588 3.09592C263.951 2.91992 264.394 2.83192 264.916 2.83192C265.535 2.83192 266.034 2.94925 266.412 3.18392C266.796 3.41858 267.076 3.75725 267.252 4.19992C267.428 4.63725 267.516 5.17592 267.516 5.81592V10.8159ZM262.292 10.8159H260.996V3.00792H262.292L262.236 4.87992L262.292 4.95192V10.8159ZM272.336 10.9759C271.734 10.9759 271.248 10.8853 270.88 10.7039C270.512 10.5226 270.246 10.2479 270.08 9.87992C269.915 9.51192 269.832 9.05325 269.832 8.50392V3.57592H271.112V8.35192C271.112 8.86392 271.23 9.24258 271.464 9.48792C271.699 9.72792 272.094 9.84792 272.648 9.84792C272.963 9.84792 273.264 9.81325 273.552 9.74392C273.846 9.67458 274.12 9.57592 274.376 9.44792L274.256 10.5599C274.006 10.6879 273.712 10.7893 273.376 10.8639C273.04 10.9386 272.694 10.9759 272.336 10.9759ZM274.176 4.15992H268.552V3.11992H274.296L274.176 4.15992ZM271.08 3.24792H269.84L269.832 1.05592L271.136 0.887918L271.08 3.24792ZM278.725 11.0159C277.605 11.0159 276.755 10.7146 276.173 10.1119C275.597 9.50392 275.309 8.63192 275.309 7.49592V6.30392C275.309 5.17325 275.6 4.30658 276.181 3.70392C276.763 3.10125 277.611 2.79992 278.725 2.79992C279.845 2.79992 280.693 3.10125 281.269 3.70392C281.851 4.30658 282.141 5.17325 282.141 6.30392V7.49592C282.141 8.63192 281.851 9.50392 281.269 10.1119C280.693 10.7146 279.845 11.0159 278.725 11.0159ZM278.725 9.95992C279.419 9.95992 279.944 9.75458 280.301 9.34392C280.664 8.93325 280.845 8.34125 280.845 7.56792V6.23192C280.845 5.46392 280.664 4.87725 280.301 4.47192C279.944 4.06125 279.419 3.85592 278.725 3.85592C278.037 3.85592 277.512 4.06125 277.149 4.47192C276.787 4.87725 276.605 5.46392 276.605 6.23192V7.56792C276.605 8.34125 276.787 8.93325 277.149 9.34392C277.512 9.75458 278.037 9.95992 278.725 9.95992ZM3.55205 28.4799C2.49072 28.4799 1.67472 28.2479 1.10405 27.7839C0.538721 27.3199 0.256055 26.6559 0.256055 25.7919V25.5919C0.256055 25.0533 0.365388 24.5839 0.584055 24.1839C0.808055 23.7839 1.16272 23.4719 1.64805 23.2479C2.13339 23.0186 2.76805 22.8933 3.55205 22.8719L7.53605 22.7439V23.7679L5.18405 23.6879L5.17605 23.7439C5.54405 23.8186 5.84539 23.9466 6.08006 24.1279C6.31472 24.3093 6.48806 24.5359 6.60006 24.8079C6.71739 25.0799 6.77605 25.3973 6.77605 25.7599V25.9359C6.77605 26.7626 6.50405 27.3946 5.96005 27.8319C5.41605 28.2639 4.61339 28.4799 3.55205 28.4799ZM3.49605 32.7839H3.68005C4.16005 32.7839 4.57072 32.7466 4.91206 32.6719C5.25872 32.6026 5.52539 32.4906 5.71206 32.3359C5.89872 32.1813 5.99205 31.9759 5.99205 31.7199V31.6879C5.99205 31.3893 5.88272 31.1599 5.66405 30.9999C5.45072 30.8453 5.08272 30.7439 4.56005 30.6959L2.35205 30.4959L2.72005 30.4799C2.42139 30.5226 2.15739 30.5919 1.92805 30.6879C1.70405 30.7839 1.52805 30.9093 1.40005 31.0639C1.27205 31.2239 1.20805 31.4213 1.20805 31.6559V31.6719C1.20805 31.9439 1.30139 32.1626 1.48805 32.3279C1.67472 32.4933 1.93872 32.6106 2.28005 32.6799C2.62139 32.7493 3.02672 32.7839 3.49605 32.7839ZM3.65605 33.8159H3.42405C2.72005 33.8159 2.11205 33.7546 1.60005 33.6319C1.09339 33.5146 0.698721 33.3199 0.416055 33.0479C0.138721 32.7813 5.47171e-05 32.4213 5.47171e-05 31.9679V31.9359C5.47171e-05 31.6159 0.0747214 31.3493 0.224055 31.1359C0.378721 30.9226 0.584055 30.7546 0.840055 30.6319C1.10139 30.5093 1.39205 30.4266 1.71205 30.3839L1.70405 30.3359C1.26672 30.2613 0.944055 30.1333 0.736055 29.9519C0.528055 29.7653 0.424055 29.5253 0.424055 29.2319V29.2239C0.424055 29.0213 0.469388 28.8479 0.560055 28.7039C0.656055 28.5599 0.797388 28.4453 0.984055 28.3599C1.17605 28.2746 1.41872 28.2213 1.71205 28.1999V28.0399L3.20005 28.4159L2.59205 28.3999C2.22939 28.4053 1.97872 28.4506 1.84005 28.5359C1.70139 28.6159 1.63205 28.7386 1.63205 28.9039V28.9119C1.63205 29.0879 1.73072 29.2213 1.92805 29.3119C2.12539 29.4026 2.46139 29.4746 2.93605 29.5279L4.83206 29.7199C5.65872 29.8053 6.26139 30.0053 6.64006 30.3199C7.01872 30.6293 7.20806 31.0879 7.20806 31.6959V31.7359C7.20806 32.2213 7.06405 32.6186 6.77605 32.9279C6.48806 33.2373 6.08006 33.4613 5.55205 33.5999C5.02406 33.7439 4.39206 33.8159 3.65605 33.8159ZM3.53606 27.5199C3.98406 27.5199 4.35472 27.4559 4.64806 27.3279C4.94672 27.1946 5.17072 26.9973 5.32006 26.7359C5.47472 26.4693 5.55205 26.1439 5.55205 25.7599V25.5679C5.55205 25.1946 5.47739 24.8773 5.32805 24.6159C5.18405 24.3546 4.96539 24.1573 4.67205 24.0239C4.37872 23.8853 4.01072 23.8159 3.56805 23.8159H3.52005C3.04005 23.8159 2.64805 23.8906 2.34405 24.0399C2.04539 24.1839 1.82672 24.3893 1.68805 24.6559C1.55472 24.9173 1.48805 25.2239 1.48805 25.5759V25.7599C1.48805 26.1439 1.56272 26.4666 1.71205 26.7279C1.86672 26.9893 2.09605 27.1866 2.40005 27.3199C2.70405 27.4533 3.08272 27.5199 3.53606 27.5199ZM11.9171 30.9919C10.7277 30.9919 9.83172 30.7013 9.22905 30.1199C8.62639 29.5386 8.32505 28.7066 8.32505 27.6239V26.2319C8.32505 25.1333 8.60505 24.2879 9.16505 23.6959C9.72505 23.0986 10.5437 22.7999 11.6211 22.7999C12.3464 22.7999 12.9517 22.9359 13.4371 23.2079C13.9224 23.4746 14.2877 23.8559 14.5331 24.3519C14.7784 24.8479 14.9011 25.4399 14.9011 26.1279V26.4159C14.9011 26.5866 14.8931 26.7573 14.8771 26.9279C14.8664 27.0986 14.8504 27.2666 14.8291 27.4319H13.6371C13.6477 27.1759 13.6531 26.9333 13.6531 26.7039C13.6584 26.4746 13.6611 26.2639 13.6611 26.0719C13.6611 25.5973 13.5837 25.1973 13.4291 24.8719C13.2797 24.5413 13.0531 24.2906 12.7491 24.1199C12.4504 23.9439 12.0744 23.8559 11.6211 23.8559C10.9491 23.8559 10.4451 24.0506 10.1091 24.4399C9.77305 24.8293 9.60505 25.3866 9.60505 26.1119V26.8559L9.61305 27.0159V27.7599C9.61305 28.0853 9.66105 28.3786 9.75705 28.6399C9.85305 28.9013 10.0024 29.1279 10.2051 29.3199C10.4131 29.5066 10.6744 29.6506 10.9891 29.7519C11.3091 29.8479 11.6877 29.8959 12.1251 29.8959C12.6317 29.8959 13.1037 29.8293 13.5411 29.6959C13.9784 29.5626 14.3891 29.3813 14.7731 29.1519L14.6531 30.2719C14.3064 30.4906 13.9037 30.6666 13.4451 30.7999C12.9864 30.9279 12.4771 30.9919 11.9171 30.9919ZM14.5571 27.4319H9.00505V26.4559H14.5571V27.4319ZM19.7098 31.0159C18.5898 31.0159 17.7391 30.7146 17.1578 30.1119C16.5818 29.5039 16.2938 28.6319 16.2938 27.4959V26.3039C16.2938 25.1733 16.5845 24.3066 17.1658 23.7039C17.7471 23.1013 18.5951 22.7999 19.7098 22.7999C20.8298 22.7999 21.6778 23.1013 22.2538 23.7039C22.8351 24.3066 23.1258 25.1733 23.1258 26.3039V27.4959C23.1258 28.6319 22.8351 29.5039 22.2538 30.1119C21.6778 30.7146 20.8298 31.0159 19.7098 31.0159ZM19.7098 29.9599C20.4031 29.9599 20.9285 29.7546 21.2858 29.3439C21.6485 28.9333 21.8298 28.3413 21.8298 27.5679V26.2319C21.8298 25.4639 21.6485 24.8773 21.2858 24.4719C20.9285 24.0613 20.4031 23.8559 19.7098 23.8559C19.0218 23.8559 18.4965 24.0613 18.1338 24.4719C17.7711 24.8773 17.5898 25.4639 17.5898 26.2319V27.5679C17.5898 28.3413 17.7711 28.9333 18.1338 29.3439C18.4965 29.7546 19.0218 29.9599 19.7098 29.9599ZM35.9663 30.8159H34.6703V25.9279C34.6703 25.5173 34.617 25.1626 34.5103 24.8639C34.409 24.5599 34.2383 24.3253 33.9983 24.1599C33.7636 23.9946 33.4463 23.9119 33.0463 23.9119C32.6676 23.9119 32.3396 23.9893 32.0623 24.1439C31.785 24.2986 31.561 24.5066 31.3903 24.7679C31.2196 25.0239 31.0996 25.3173 31.0303 25.6479L30.8303 24.7279H30.9903C31.0756 24.3919 31.2196 24.0799 31.4223 23.7919C31.625 23.5039 31.8996 23.2719 32.2463 23.0959C32.593 22.9199 33.0223 22.8319 33.5343 22.8319C34.1156 22.8319 34.5823 22.9466 34.9343 23.1759C35.2916 23.4053 35.553 23.7413 35.7183 24.1839C35.8836 24.6213 35.9663 25.1546 35.9663 25.7839V30.8159ZM26.2143 30.8159H24.9183V23.0079H26.2143L26.1583 24.8799L26.2143 24.9599V30.8159ZM31.0863 30.8159H29.7983V25.9279C29.7983 25.5173 29.745 25.1626 29.6383 24.8639C29.537 24.5599 29.369 24.3253 29.1343 24.1599C28.8996 23.9946 28.5823 23.9119 28.1823 23.9119C27.7983 23.9119 27.4676 23.9893 27.1903 24.1439C26.913 24.2986 26.689 24.5093 26.5183 24.7759C26.3476 25.0373 26.2276 25.3359 26.1583 25.6719L25.9183 24.7519H26.2063C26.2863 24.3999 26.425 24.0799 26.6223 23.7919C26.8196 23.4986 27.0863 23.2666 27.4223 23.0959C27.7636 22.9199 28.177 22.8319 28.6623 22.8319C29.3823 22.8319 29.929 23.0186 30.3023 23.3919C30.681 23.7653 30.9183 24.3093 31.0143 25.0239C31.041 25.1306 31.0596 25.2479 31.0703 25.3759C31.081 25.4986 31.0863 25.6213 31.0863 25.7439V30.8159ZM41.2608 30.9919C40.0715 30.9919 39.1755 30.7013 38.5728 30.1199C37.9701 29.5386 37.6688 28.7066 37.6688 27.6239V26.2319C37.6688 25.1333 37.9488 24.2879 38.5088 23.6959C39.0688 23.0986 39.8875 22.7999 40.9648 22.7999C41.6901 22.7999 42.2955 22.9359 42.7808 23.2079C43.2661 23.4746 43.6315 23.8559 43.8768 24.3519C44.1221 24.8479 44.2448 25.4399 44.2448 26.1279V26.4159C44.2448 26.5866 44.2368 26.7573 44.2208 26.9279C44.2101 27.0986 44.1941 27.2666 44.1728 27.4319H42.9808C42.9915 27.1759 42.9968 26.9333 42.9968 26.7039C43.0021 26.4746 43.0048 26.2639 43.0048 26.0719C43.0048 25.5973 42.9275 25.1973 42.7728 24.8719C42.6235 24.5413 42.3968 24.2906 42.0928 24.1199C41.7941 23.9439 41.4181 23.8559 40.9648 23.8559C40.2928 23.8559 39.7888 24.0506 39.4528 24.4399C39.1168 24.8293 38.9488 25.3866 38.9488 26.1119V26.8559L38.9568 27.0159V27.7599C38.9568 28.0853 39.0048 28.3786 39.1008 28.6399C39.1968 28.9013 39.3461 29.1279 39.5488 29.3199C39.7568 29.5066 40.0181 29.6506 40.3328 29.7519C40.6528 29.8479 41.0315 29.8959 41.4688 29.8959C41.9755 29.8959 42.4475 29.8293 42.8848 29.6959C43.3221 29.5626 43.7328 29.3813 44.1168 29.1519L43.9968 30.2719C43.6501 30.4906 43.2475 30.6666 42.7888 30.7999C42.3301 30.9279 41.8208 30.9919 41.2608 30.9919ZM43.9008 27.4319H38.3488V26.4559H43.9008V27.4319ZM48.8208 30.9759C48.2181 30.9759 47.7328 30.8853 47.3648 30.7039C46.9968 30.5226 46.7301 30.2479 46.5648 29.8799C46.3995 29.5119 46.3168 29.0533 46.3168 28.5039V23.5759H47.5968V28.3519C47.5968 28.8639 47.7141 29.2426 47.9488 29.4879C48.1835 29.7279 48.5781 29.8479 49.1328 29.8479C49.4475 29.8479 49.7488 29.8133 50.0368 29.7439C50.3301 29.6746 50.6048 29.5759 50.8608 29.4479L50.7408 30.5599C50.4901 30.6879 50.1968 30.7893 49.8608 30.8639C49.5248 30.9386 49.1781 30.9759 48.8208 30.9759ZM50.6608 24.1599H45.0368V23.1199H50.7808L50.6608 24.1599ZM47.5648 23.2479H46.3248L46.3168 21.0559L47.6208 20.8879L47.5648 23.2479ZM53.5409 26.0399L53.2449 25.0399L53.5649 25.0239C53.7356 24.3626 54.0289 23.8426 54.4449 23.4639C54.8609 23.0799 55.4129 22.8879 56.1009 22.8879C56.2716 22.8879 56.4236 22.9013 56.5569 22.9279C56.6956 22.9546 56.8183 22.9866 56.9249 23.0239L57.0049 24.2799C56.8716 24.2373 56.7223 24.2026 56.5569 24.1759C56.3969 24.1493 56.2183 24.1359 56.0209 24.1359C55.4343 24.1359 54.9223 24.2986 54.4849 24.6239C54.0529 24.9493 53.7383 25.4213 53.5409 26.0399ZM53.6049 30.8159H52.3089V23.0079H53.5729L53.5089 25.3119L53.6049 25.4079V30.8159ZM59.5977 30.8159H58.3017V23.0079H59.5977V30.8159ZM58.9497 21.7279C58.683 21.7279 58.483 21.6586 58.3497 21.5199C58.2217 21.3759 58.1577 21.1813 58.1577 20.9359V20.8959C58.1577 20.6453 58.2217 20.4506 58.3497 20.3119C58.483 20.1733 58.683 20.1039 58.9497 20.1039C59.2163 20.1039 59.4163 20.1733 59.5497 20.3119C59.683 20.4506 59.7497 20.6453 59.7497 20.8959V20.9359C59.7497 21.1866 59.683 21.3813 59.5497 21.5199C59.4163 21.6586 59.2163 21.7279 58.9497 21.7279ZM64.7544 30.9919C63.6344 30.9919 62.7998 30.6906 62.2504 30.0879C61.7064 29.4799 61.4344 28.6213 61.4344 27.5119V26.2959C61.4344 25.1813 61.7091 24.3253 62.2584 23.7279C62.8078 23.1253 63.6398 22.8239 64.7544 22.8239C65.0851 22.8239 65.3864 22.8559 65.6584 22.9199C65.9304 22.9786 66.1731 23.0586 66.3864 23.1599C66.6051 23.2559 66.7891 23.3573 66.9384 23.4639L67.0504 24.5919C66.7998 24.3999 66.5011 24.2373 66.1544 24.1039C65.8131 23.9706 65.4104 23.9039 64.9464 23.9039C64.1998 23.9039 63.6424 24.1119 63.2744 24.5279C62.9118 24.9386 62.7304 25.5386 62.7304 26.3279V27.4799C62.7304 28.2533 62.9118 28.8479 63.2744 29.2639C63.6424 29.6799 64.1998 29.8879 64.9464 29.8879C65.4264 29.8879 65.8398 29.8213 66.1864 29.6879C66.5384 29.5546 66.8504 29.3919 67.1224 29.1999L67.0024 30.3439C66.7678 30.5039 66.4611 30.6533 66.0824 30.7919C65.7038 30.9253 65.2611 30.9919 64.7544 30.9919ZM83.1382 30.8159H81.8422V25.9279C81.8422 25.5173 81.7888 25.1626 81.6822 24.8639C81.5808 24.5599 81.4102 24.3253 81.1702 24.1599C80.9355 23.9946 80.6182 23.9119 80.2182 23.9119C79.8395 23.9119 79.5115 23.9893 79.2342 24.1439C78.9568 24.2986 78.7328 24.5066 78.5622 24.7679C78.3915 25.0239 78.2715 25.3173 78.2022 25.6479L78.0022 24.7279H78.1622C78.2475 24.3919 78.3915 24.0799 78.5942 23.7919C78.7968 23.5039 79.0715 23.2719 79.4182 23.0959C79.7648 22.9199 80.1942 22.8319 80.7062 22.8319C81.2875 22.8319 81.7542 22.9466 82.1062 23.1759C82.4635 23.4053 82.7248 23.7413 82.8902 24.1839C83.0555 24.6213 83.1382 25.1546 83.1382 25.7839V30.8159ZM73.3862 30.8159H72.0902V23.0079H73.3862L73.3302 24.8799L73.3862 24.9599V30.8159ZM78.2582 30.8159H76.9702V25.9279C76.9702 25.5173 76.9168 25.1626 76.8102 24.8639C76.7088 24.5599 76.5408 24.3253 76.3062 24.1599C76.0715 23.9946 75.7542 23.9119 75.3542 23.9119C74.9702 23.9119 74.6395 23.9893 74.3622 24.1439C74.0848 24.2986 73.8608 24.5093 73.6902 24.7759C73.5195 25.0373 73.3995 25.3359 73.3302 25.6719L73.0902 24.7519H73.3782C73.4582 24.3999 73.5968 24.0799 73.7942 23.7919C73.9915 23.4986 74.2582 23.2666 74.5942 23.0959C74.9355 22.9199 75.3488 22.8319 75.8342 22.8319C76.5542 22.8319 77.1008 23.0186 77.4742 23.3919C77.8528 23.7653 78.0902 24.3093 78.1862 25.0239C78.2128 25.1306 78.2315 25.2479 78.2422 25.3759C78.2528 25.4986 78.2582 25.6213 78.2582 25.7439V30.8159ZM88.2567 31.0159C87.1367 31.0159 86.286 30.7146 85.7047 30.1119C85.1287 29.5039 84.8407 28.6319 84.8407 27.4959V26.3039C84.8407 25.1733 85.1313 24.3066 85.7127 23.7039C86.294 23.1013 87.142 22.7999 88.2567 22.7999C89.3767 22.7999 90.2247 23.1013 90.8007 23.7039C91.382 24.3066 91.6727 25.1733 91.6727 26.3039V27.4959C91.6727 28.6319 91.382 29.5039 90.8007 30.1119C90.2247 30.7146 89.3767 31.0159 88.2567 31.0159ZM88.2567 29.9599C88.95 29.9599 89.4753 29.7546 89.8327 29.3439C90.1953 28.9333 90.3767 28.3413 90.3767 27.5679V26.2319C90.3767 25.4639 90.1953 24.8773 89.8327 24.4719C89.4753 24.0613 88.95 23.8559 88.2567 23.8559C87.5687 23.8559 87.0433 24.0613 86.6807 24.4719C86.318 24.8773 86.1367 25.4639 86.1367 26.2319V27.5679C86.1367 28.3413 86.318 28.9333 86.6807 29.3439C87.0433 29.7546 87.5687 29.9599 88.2567 29.9599ZM94.7932 30.8159H93.5052V20.2159H94.7932V30.8159ZM99.5256 30.9839C98.5869 30.9839 97.8722 30.6933 97.3816 30.1119C96.8909 29.5306 96.6456 28.6826 96.6456 27.5679V26.2799C96.6456 25.1599 96.8936 24.3066 97.3896 23.7199C97.8856 23.1279 98.6162 22.8319 99.5816 22.8319C100.062 22.8319 100.478 22.9146 100.83 23.0799C101.182 23.2399 101.467 23.4666 101.686 23.7599C101.904 24.0533 102.051 24.3999 102.126 24.7999H102.55L102.166 25.9919C102.15 25.5333 102.046 25.1493 101.854 24.8399C101.667 24.5253 101.411 24.2879 101.086 24.1279C100.766 23.9679 100.398 23.8879 99.9816 23.8879C99.3202 23.8879 98.8136 24.0799 98.4616 24.4639C98.1149 24.8479 97.9416 25.4133 97.9416 26.1599V27.6479C97.9416 28.3839 98.1149 28.9439 98.4616 29.3279C98.8136 29.7119 99.3202 29.9039 99.9816 29.9039C100.376 29.9039 100.726 29.8293 101.03 29.6799C101.334 29.5253 101.584 29.3146 101.782 29.0479C101.984 28.7759 102.123 28.4693 102.198 28.1279L102.518 29.0559H102.134C102.059 29.4079 101.915 29.7306 101.702 30.0239C101.494 30.3173 101.211 30.5519 100.854 30.7279C100.502 30.8986 100.059 30.9839 99.5256 30.9839ZM103.43 30.8159H102.134L102.19 28.9279L102.166 28.5119V25.2479L102.174 24.9759L102.142 22.7599V20.2159H103.43V30.8159ZM107.983 30.9919C107.354 30.9919 106.805 30.9253 106.335 30.7919C105.866 30.6533 105.477 30.5039 105.167 30.3439L105.047 29.1439C105.437 29.3466 105.863 29.5226 106.327 29.6719C106.797 29.8213 107.327 29.8959 107.919 29.8959C108.522 29.8959 108.975 29.7999 109.279 29.6079C109.583 29.4159 109.735 29.1306 109.735 28.7519V28.6639C109.735 28.4186 109.677 28.2159 109.559 28.0559C109.447 27.8959 109.242 27.7546 108.943 27.6319C108.645 27.5093 108.221 27.3866 107.671 27.2639C107.015 27.1199 106.498 26.9519 106.119 26.7599C105.741 26.5626 105.469 26.3199 105.303 26.0319C105.143 25.7439 105.063 25.3919 105.063 24.9759V24.9039C105.063 24.2213 105.301 23.7039 105.775 23.3519C106.25 22.9999 106.965 22.8239 107.919 22.8239C108.533 22.8239 109.063 22.8933 109.511 23.0319C109.965 23.1706 110.335 23.3253 110.623 23.4959L110.743 24.5919C110.397 24.3893 109.999 24.2213 109.551 24.0879C109.103 23.9546 108.599 23.8879 108.039 23.8879C107.634 23.8879 107.306 23.9306 107.055 24.0159C106.805 24.0959 106.623 24.2133 106.511 24.3679C106.399 24.5173 106.343 24.6986 106.343 24.9119V24.9759C106.343 25.2106 106.399 25.4106 106.511 25.5759C106.623 25.7359 106.823 25.8773 107.111 25.9999C107.405 26.1173 107.81 26.2319 108.327 26.3439C108.994 26.4773 109.522 26.6373 109.911 26.8239C110.306 27.0106 110.589 27.2479 110.759 27.5359C110.93 27.8186 111.015 28.1839 111.015 28.6319V28.7679C111.015 29.5039 110.759 30.0586 110.247 30.4319C109.735 30.8053 108.981 30.9919 107.983 30.9919ZM113.187 30.9679C112.91 30.9679 112.705 30.8933 112.571 30.7439C112.443 30.5893 112.379 30.3733 112.379 30.0959V30.0159C112.379 29.7439 112.443 29.5333 112.571 29.3839C112.705 29.2346 112.91 29.1599 113.187 29.1599C113.459 29.1599 113.662 29.2346 113.795 29.3839C113.929 29.5333 113.995 29.7439 113.995 30.0159V30.0959C113.995 30.3733 113.929 30.5893 113.795 30.7439C113.662 30.8933 113.459 30.9679 113.187 30.9679ZM119.336 20.5919H121.352L125.504 29.3919H125.6L125.544 24.9279V20.5919H126.84V30.8159H124.872L120.672 21.9439H120.576L120.632 26.6159V30.8159H119.336V20.5919ZM132.194 31.0159C131.074 31.0159 130.224 30.7146 129.642 30.1119C129.066 29.5039 128.778 28.6319 128.778 27.4959V26.3039C128.778 25.1733 129.069 24.3066 129.65 23.7039C130.232 23.1013 131.08 22.7999 132.194 22.7999C133.314 22.7999 134.162 23.1013 134.738 23.7039C135.32 24.3066 135.61 25.1733 135.61 26.3039V27.4959C135.61 28.6319 135.32 29.5039 134.738 30.1119C134.162 30.7146 133.314 31.0159 132.194 31.0159ZM132.194 29.9599C132.888 29.9599 133.413 29.7546 133.77 29.3439C134.133 28.9333 134.314 28.3413 134.314 27.5679V26.2319C134.314 25.4639 134.133 24.8773 133.77 24.4719C133.413 24.0613 132.888 23.8559 132.194 23.8559C131.506 23.8559 130.981 24.0613 130.618 24.4719C130.256 24.8773 130.074 25.4639 130.074 26.2319V27.5679C130.074 28.3413 130.256 28.9333 130.618 29.3439C130.981 29.7546 131.506 29.9599 132.194 29.9599ZM151.857 30.8159H150.561V25.9279C150.561 25.5173 150.508 25.1626 150.401 24.8639C150.3 24.5599 150.129 24.3253 149.889 24.1599C149.654 23.9946 149.337 23.9119 148.937 23.9119C148.558 23.9119 148.23 23.9893 147.953 24.1439C147.676 24.2986 147.452 24.5066 147.281 24.7679C147.11 25.0239 146.99 25.3173 146.921 25.6479L146.721 24.7279H146.881C146.966 24.3919 147.11 24.0799 147.313 23.7919C147.516 23.5039 147.79 23.2719 148.137 23.0959C148.484 22.9199 148.913 22.8319 149.425 22.8319C150.006 22.8319 150.473 22.9466 150.825 23.1759C151.182 23.4053 151.444 23.7413 151.609 24.1839C151.774 24.6213 151.857 25.1546 151.857 25.7839V30.8159ZM142.105 30.8159H140.809V23.0079H142.105L142.049 24.8799L142.105 24.9599V30.8159ZM146.977 30.8159H145.689V25.9279C145.689 25.5173 145.636 25.1626 145.529 24.8639C145.428 24.5599 145.26 24.3253 145.025 24.1599C144.79 23.9946 144.473 23.9119 144.073 23.9119C143.689 23.9119 143.358 23.9893 143.081 24.1439C142.804 24.2986 142.58 24.5093 142.409 24.7759C142.238 25.0373 142.118 25.3359 142.049 25.6719L141.809 24.7519H142.097C142.177 24.3999 142.316 24.0799 142.513 23.7919C142.71 23.4986 142.977 23.2666 143.313 23.0959C143.654 22.9199 144.068 22.8319 144.553 22.8319C145.273 22.8319 145.82 23.0186 146.193 23.3919C146.572 23.7653 146.809 24.3093 146.905 25.0239C146.932 25.1306 146.95 25.2479 146.961 25.3759C146.972 25.4986 146.977 25.6213 146.977 25.7439V30.8159ZM159.791 30.8159H158.503L158.559 28.9199L158.511 28.7199V26.2319L158.519 25.7759C158.519 25.1413 158.357 24.6719 158.031 24.3679C157.711 24.0639 157.202 23.9119 156.503 23.9119C155.943 23.9119 155.429 23.9919 154.959 24.1519C154.495 24.3119 154.082 24.4986 153.719 24.7119L153.839 23.6079C154.042 23.4853 154.282 23.3653 154.559 23.2479C154.842 23.1253 155.162 23.0239 155.519 22.9439C155.882 22.8639 156.279 22.8239 156.711 22.8239C157.271 22.8239 157.746 22.8933 158.135 23.0319C158.53 23.1653 158.847 23.3599 159.087 23.6159C159.333 23.8719 159.511 24.1813 159.623 24.5439C159.735 24.9066 159.791 25.3119 159.791 25.7599V30.8159ZM155.815 30.9839C155.042 30.9839 154.447 30.7973 154.031 30.4239C153.621 30.0453 153.415 29.5066 153.415 28.8079V28.5759C153.415 27.8559 153.637 27.3199 154.079 26.9679C154.527 26.6106 155.237 26.3626 156.207 26.2239L158.679 25.8719L158.751 26.8159L156.367 27.1599C155.77 27.2453 155.343 27.3919 155.087 27.5999C154.831 27.8026 154.703 28.1039 154.703 28.5039V28.6319C154.703 29.0426 154.829 29.3573 155.079 29.5759C155.335 29.7946 155.717 29.9039 156.223 29.9039C156.671 29.9039 157.055 29.8266 157.375 29.6719C157.695 29.5173 157.954 29.3093 158.151 29.0479C158.349 28.7866 158.482 28.4959 158.551 28.1759L158.751 29.0559H158.503C158.429 29.3973 158.287 29.7146 158.079 30.0079C157.877 30.3013 157.591 30.5386 157.223 30.7199C156.855 30.8959 156.386 30.9839 155.815 30.9839ZM164.802 28.4799C163.741 28.4799 162.925 28.2479 162.354 27.7839C161.789 27.3199 161.506 26.6559 161.506 25.7919V25.5919C161.506 25.0533 161.615 24.5839 161.834 24.1839C162.058 23.7839 162.413 23.4719 162.898 23.2479C163.383 23.0186 164.018 22.8933 164.802 22.8719L168.786 22.7439V23.7679L166.434 23.6879L166.426 23.7439C166.794 23.8186 167.095 23.9466 167.33 24.1279C167.565 24.3093 167.738 24.5359 167.85 24.8079C167.967 25.0799 168.026 25.3973 168.026 25.7599V25.9359C168.026 26.7626 167.754 27.3946 167.21 27.8319C166.666 28.2639 165.863 28.4799 164.802 28.4799ZM164.746 32.7839H164.93C165.41 32.7839 165.821 32.7466 166.162 32.6719C166.509 32.6026 166.775 32.4906 166.962 32.3359C167.149 32.1813 167.242 31.9759 167.242 31.7199V31.6879C167.242 31.3893 167.133 31.1599 166.914 30.9999C166.701 30.8453 166.333 30.7439 165.81 30.6959L163.602 30.4959L163.97 30.4799C163.671 30.5226 163.407 30.5919 163.178 30.6879C162.954 30.7839 162.778 30.9093 162.65 31.0639C162.522 31.2239 162.458 31.4213 162.458 31.6559V31.6719C162.458 31.9439 162.551 32.1626 162.738 32.3279C162.925 32.4933 163.189 32.6106 163.53 32.6799C163.871 32.7493 164.277 32.7839 164.746 32.7839ZM164.906 33.8159H164.674C163.97 33.8159 163.362 33.7546 162.85 33.6319C162.343 33.5146 161.949 33.3199 161.666 33.0479C161.389 32.7813 161.25 32.4213 161.25 31.9679V31.9359C161.25 31.6159 161.325 31.3493 161.474 31.1359C161.629 30.9226 161.834 30.7546 162.09 30.6319C162.351 30.5093 162.642 30.4266 162.962 30.3839L162.954 30.3359C162.517 30.2613 162.194 30.1333 161.986 29.9519C161.778 29.7653 161.674 29.5253 161.674 29.2319V29.2239C161.674 29.0213 161.719 28.8479 161.81 28.7039C161.906 28.5599 162.047 28.4453 162.234 28.3599C162.426 28.2746 162.669 28.2213 162.962 28.1999V28.0399L164.45 28.4159L163.842 28.3999C163.479 28.4053 163.229 28.4506 163.09 28.5359C162.951 28.6159 162.882 28.7386 162.882 28.9039V28.9119C162.882 29.0879 162.981 29.2213 163.178 29.3119C163.375 29.4026 163.711 29.4746 164.186 29.5279L166.082 29.7199C166.909 29.8053 167.511 30.0053 167.89 30.3199C168.269 30.6293 168.458 31.0879 168.458 31.6959V31.7359C168.458 32.2213 168.314 32.6186 168.026 32.9279C167.738 33.2373 167.33 33.4613 166.802 33.5999C166.274 33.7439 165.642 33.8159 164.906 33.8159ZM164.786 27.5199C165.234 27.5199 165.605 27.4559 165.898 27.3279C166.197 27.1946 166.421 26.9973 166.57 26.7359C166.725 26.4693 166.802 26.1439 166.802 25.7599V25.5679C166.802 25.1946 166.727 24.8773 166.578 24.6159C166.434 24.3546 166.215 24.1573 165.922 24.0239C165.629 23.8853 165.261 23.8159 164.818 23.8159H164.77C164.29 23.8159 163.898 23.8906 163.594 24.0399C163.295 24.1839 163.077 24.3893 162.938 24.6559C162.805 24.9173 162.738 25.2239 162.738 25.5759V25.7599C162.738 26.1439 162.813 26.4666 162.962 26.7279C163.117 26.9893 163.346 27.1866 163.65 27.3199C163.954 27.4533 164.333 27.5199 164.786 27.5199ZM171.285 30.8159H169.989V23.0079H171.285V30.8159ZM170.637 21.7279C170.371 21.7279 170.171 21.6586 170.037 21.5199C169.909 21.3759 169.845 21.1813 169.845 20.9359V20.8959C169.845 20.6453 169.909 20.4506 170.037 20.3119C170.171 20.1733 170.371 20.1039 170.637 20.1039C170.904 20.1039 171.104 20.1733 171.237 20.3119C171.371 20.4506 171.437 20.6453 171.437 20.8959V20.9359C171.437 21.1866 171.371 21.3813 171.237 21.5199C171.104 21.6586 170.904 21.7279 170.637 21.7279ZM176.442 30.9919C175.322 30.9919 174.487 30.6906 173.938 30.0879C173.394 29.4799 173.122 28.6213 173.122 27.5119V26.2959C173.122 25.1813 173.397 24.3253 173.946 23.7279C174.495 23.1253 175.327 22.8239 176.442 22.8239C176.773 22.8239 177.074 22.8559 177.346 22.9199C177.618 22.9786 177.861 23.0586 178.074 23.1599C178.293 23.2559 178.477 23.3573 178.626 23.4639L178.738 24.5919C178.487 24.3999 178.189 24.2373 177.842 24.1039C177.501 23.9706 177.098 23.9039 176.634 23.9039C175.887 23.9039 175.33 24.1119 174.962 24.5279C174.599 24.9386 174.418 25.5386 174.418 26.3279V27.4799C174.418 28.2533 174.599 28.8479 174.962 29.2639C175.33 29.6799 175.887 29.8879 176.634 29.8879C177.114 29.8879 177.527 29.8213 177.874 29.6879C178.226 29.5546 178.538 29.3919 178.81 29.1999L178.69 30.3439C178.455 30.5039 178.149 30.6533 177.77 30.7919C177.391 30.9253 176.949 30.9919 176.442 30.9919ZM190.298 30.8159H189.002V25.9599C189.002 25.5386 188.943 25.1759 188.826 24.8719C188.714 24.5679 188.527 24.3333 188.266 24.1679C188.01 23.9973 187.658 23.9119 187.21 23.9119C186.799 23.9119 186.444 23.9893 186.146 24.1439C185.847 24.2986 185.604 24.5093 185.418 24.7759C185.236 25.0373 185.108 25.3359 185.034 25.6719L184.746 24.7519H185.082C185.162 24.3999 185.308 24.0799 185.522 23.7919C185.735 23.4986 186.02 23.2666 186.378 23.0959C186.74 22.9199 187.18 22.8319 187.698 22.8319C188.316 22.8319 188.815 22.9493 189.194 23.1839C189.578 23.4186 189.858 23.7573 190.034 24.1999C190.21 24.6373 190.298 25.1759 190.298 25.8159V30.8159ZM185.074 30.8159H183.778V20.2159H185.066V22.7599L185.026 24.9999L185.074 25.1039V30.8159ZM195.589 30.9919C194.4 30.9919 193.504 30.7013 192.901 30.1199C192.298 29.5386 191.997 28.7066 191.997 27.6239V26.2319C191.997 25.1333 192.277 24.2879 192.837 23.6959C193.397 23.0986 194.216 22.7999 195.293 22.7999C196.018 22.7999 196.624 22.9359 197.109 23.2079C197.594 23.4746 197.96 23.8559 198.205 24.3519C198.45 24.8479 198.573 25.4399 198.573 26.1279V26.4159C198.573 26.5866 198.565 26.7573 198.549 26.9279C198.538 27.0986 198.522 27.2666 198.501 27.4319H197.309C197.32 27.1759 197.325 26.9333 197.325 26.7039C197.33 26.4746 197.333 26.2639 197.333 26.0719C197.333 25.5973 197.256 25.1973 197.101 24.8719C196.952 24.5413 196.725 24.2906 196.421 24.1199C196.122 23.9439 195.746 23.8559 195.293 23.8559C194.621 23.8559 194.117 24.0506 193.781 24.4399C193.445 24.8293 193.277 25.3866 193.277 26.1119V26.8559L193.285 27.0159V27.7599C193.285 28.0853 193.333 28.3786 193.429 28.6399C193.525 28.9013 193.674 29.1279 193.877 29.3199C194.085 29.5066 194.346 29.6506 194.661 29.7519C194.981 29.8479 195.36 29.8959 195.797 29.8959C196.304 29.8959 196.776 29.8293 197.213 29.6959C197.65 29.5626 198.061 29.3813 198.445 29.1519L198.325 30.2719C197.978 30.4906 197.576 30.6666 197.117 30.7999C196.658 30.9279 196.149 30.9919 195.589 30.9919ZM198.229 27.4319H192.677V26.4559H198.229V27.4319ZM201.525 26.0399L201.229 25.0399L201.549 25.0239C201.72 24.3626 202.013 23.8426 202.429 23.4639C202.845 23.0799 203.397 22.8879 204.085 22.8879C204.256 22.8879 204.408 22.9013 204.541 22.9279C204.68 22.9546 204.803 22.9866 204.909 23.0239L204.989 24.2799C204.856 24.2373 204.707 24.2026 204.541 24.1759C204.381 24.1493 204.203 24.1359 204.005 24.1359C203.419 24.1359 202.907 24.2986 202.469 24.6239C202.037 24.9493 201.723 25.4213 201.525 26.0399ZM201.589 30.8159H200.293V23.0079H201.557L201.493 25.3119L201.589 25.4079V30.8159ZM209.339 30.9919C208.15 30.9919 207.254 30.7013 206.651 30.1199C206.048 29.5386 205.747 28.7066 205.747 27.6239V26.2319C205.747 25.1333 206.027 24.2879 206.587 23.6959C207.147 23.0986 207.966 22.7999 209.043 22.7999C209.768 22.7999 210.374 22.9359 210.859 23.2079C211.344 23.4746 211.71 23.8559 211.955 24.3519C212.2 24.8479 212.323 25.4399 212.323 26.1279V26.4159C212.323 26.5866 212.315 26.7573 212.299 26.9279C212.288 27.0986 212.272 27.2666 212.251 27.4319H211.059C211.07 27.1759 211.075 26.9333 211.075 26.7039C211.08 26.4746 211.083 26.2639 211.083 26.0719C211.083 25.5973 211.006 25.1973 210.851 24.8719C210.702 24.5413 210.475 24.2906 210.171 24.1199C209.872 23.9439 209.496 23.8559 209.043 23.8559C208.371 23.8559 207.867 24.0506 207.531 24.4399C207.195 24.8293 207.027 25.3866 207.027 26.1119V26.8559L207.035 27.0159V27.7599C207.035 28.0853 207.083 28.3786 207.179 28.6399C207.275 28.9013 207.424 29.1279 207.627 29.3199C207.835 29.5066 208.096 29.6506 208.411 29.7519C208.731 29.8479 209.11 29.8959 209.547 29.8959C210.054 29.8959 210.526 29.8293 210.963 29.6959C211.4 29.5626 211.811 29.3813 212.195 29.1519L212.075 30.2719C211.728 30.4906 211.326 30.6666 210.867 30.7999C210.408 30.9279 209.899 30.9919 209.339 30.9919ZM211.979 27.4319H206.427V26.4559H211.979V27.4319ZM221.922 27.1519H217.378V26.0879H221.922V27.1519ZM228.915 29.7519H227.619V23.0079H228.915V29.7519ZM228.267 21.7279C228.001 21.7279 227.801 21.6586 227.667 21.5199C227.539 21.3759 227.475 21.1813 227.475 20.9359V20.8959C227.475 20.6453 227.539 20.4506 227.667 20.3119C227.801 20.1733 228.001 20.1039 228.267 20.1039C228.534 20.1039 228.734 20.1733 228.867 20.3119C229.001 20.4506 229.067 20.6453 229.067 20.8959V20.9359C229.067 21.1866 229.001 21.3813 228.867 21.5199C228.734 21.6586 228.534 21.7279 228.267 21.7279ZM226.667 33.6719C226.438 33.6719 226.222 33.6506 226.019 33.6079C225.817 33.5706 225.643 33.5253 225.499 33.4719L225.387 32.3999C225.537 32.4693 225.694 32.5199 225.859 32.5519C226.019 32.5893 226.187 32.6079 226.363 32.6079C226.843 32.6079 227.171 32.4773 227.347 32.2159C227.529 31.9599 227.619 31.5893 227.619 31.1039V28.6319H228.915V31.1679C228.915 31.6906 228.843 32.1386 228.699 32.5119C228.555 32.8853 228.318 33.1706 227.987 33.3679C227.657 33.5706 227.217 33.6719 226.667 33.6719ZM230.963 23.0079H232.251V27.8639C232.251 28.2746 232.307 28.6346 232.419 28.9439C232.536 29.2479 232.726 29.4853 232.987 29.6559C233.248 29.8213 233.6 29.9039 234.043 29.9039C234.459 29.9039 234.816 29.8293 235.115 29.6799C235.414 29.5253 235.656 29.3146 235.843 29.0479C236.035 28.7813 236.166 28.4799 236.235 28.1439L236.467 29.0639H236.187C236.107 29.4159 235.96 29.7386 235.747 30.0319C235.534 30.3199 235.246 30.5519 234.883 30.7279C234.526 30.8986 234.083 30.9839 233.555 30.9839C232.942 30.9839 232.443 30.8693 232.059 30.6399C231.68 30.4053 231.403 30.0666 231.227 29.6239C231.051 29.1759 230.963 28.6373 230.963 28.0079V23.0079ZM236.179 23.0079H237.475V30.8159H236.179L236.235 28.9439L236.179 28.8639V23.0079ZM242.03 30.9919C241.401 30.9919 240.852 30.9253 240.382 30.7919C239.913 30.6533 239.524 30.5039 239.214 30.3439L239.094 29.1439C239.484 29.3466 239.91 29.5226 240.374 29.6719C240.844 29.8213 241.374 29.8959 241.966 29.8959C242.569 29.8959 243.022 29.7999 243.326 29.6079C243.63 29.4159 243.782 29.1306 243.782 28.7519V28.6639C243.782 28.4186 243.724 28.2159 243.606 28.0559C243.494 27.8959 243.289 27.7546 242.99 27.6319C242.692 27.5093 242.268 27.3866 241.718 27.2639C241.062 27.1199 240.545 26.9519 240.166 26.7599C239.788 26.5626 239.516 26.3199 239.35 26.0319C239.19 25.7439 239.11 25.3919 239.11 24.9759V24.9039C239.11 24.2213 239.348 23.7039 239.822 23.3519C240.297 22.9999 241.012 22.8239 241.966 22.8239C242.58 22.8239 243.11 22.8933 243.558 23.0319C244.012 23.1706 244.382 23.3253 244.67 23.4959L244.79 24.5919C244.444 24.3893 244.046 24.2213 243.598 24.0879C243.15 23.9546 242.646 23.8879 242.086 23.8879C241.681 23.8879 241.353 23.9306 241.102 24.0159C240.852 24.0959 240.67 24.2133 240.558 24.3679C240.446 24.5173 240.39 24.6986 240.39 24.9119V24.9759C240.39 25.2106 240.446 25.4106 240.558 25.5759C240.67 25.7359 240.87 25.8773 241.158 25.9999C241.452 26.1173 241.857 26.2319 242.374 26.3439C243.041 26.4773 243.569 26.6373 243.958 26.8239C244.353 27.0106 244.636 27.2479 244.806 27.5359C244.977 27.8186 245.062 28.1839 245.062 28.6319V28.7679C245.062 29.5039 244.806 30.0586 244.294 30.4319C243.782 30.8053 243.028 30.9919 242.03 30.9919ZM249.446 30.9759C248.843 30.9759 248.358 30.8853 247.99 30.7039C247.622 30.5226 247.355 30.2479 247.19 29.8799C247.024 29.5119 246.942 29.0533 246.942 28.5039V23.5759H248.222V28.3519C248.222 28.8639 248.339 29.2426 248.574 29.4879C248.808 29.7279 249.203 29.8479 249.758 29.8479C250.072 29.8479 250.374 29.8133 250.662 29.7439C250.955 29.6746 251.23 29.5759 251.486 29.4479L251.366 30.5599C251.115 30.6879 250.822 30.7893 250.486 30.8639C250.15 30.9386 249.803 30.9759 249.446 30.9759ZM251.286 24.1599H245.662V23.1199H251.406L251.286 24.1599ZM248.19 23.2479H246.95L246.942 21.0559L248.246 20.8879L248.19 23.2479ZM257.572 26.0399L257.276 25.0399L257.596 25.0239C257.767 24.3626 258.06 23.8426 258.476 23.4639C258.892 23.0799 259.444 22.8879 260.132 22.8879C260.303 22.8879 260.455 22.9013 260.588 22.9279C260.727 22.9546 260.85 22.9866 260.956 23.0239L261.036 24.2799C260.903 24.2373 260.754 24.2026 260.588 24.1759C260.428 24.1493 260.25 24.1359 260.052 24.1359C259.466 24.1359 258.954 24.2986 258.516 24.6239C258.084 24.9493 257.77 25.4213 257.572 26.0399ZM257.636 30.8159H256.34V23.0079H257.604L257.54 25.3119L257.636 25.4079V30.8159ZM268.041 30.8159H266.753L266.809 28.9199L266.761 28.7199V26.2319L266.769 25.7759C266.769 25.1413 266.607 24.6719 266.281 24.3679C265.961 24.0639 265.452 23.9119 264.753 23.9119C264.193 23.9119 263.679 23.9919 263.209 24.1519C262.745 24.3119 262.332 24.4986 261.969 24.7119L262.089 23.6079C262.292 23.4853 262.532 23.3653 262.809 23.2479C263.092 23.1253 263.412 23.0239 263.769 22.9439C264.132 22.8639 264.529 22.8239 264.961 22.8239C265.521 22.8239 265.996 22.8933 266.385 23.0319C266.78 23.1653 267.097 23.3599 267.337 23.6159C267.583 23.8719 267.761 24.1813 267.873 24.5439C267.985 24.9066 268.041 25.3119 268.041 25.7599V30.8159ZM264.065 30.9839C263.292 30.9839 262.697 30.7973 262.281 30.4239C261.871 30.0453 261.665 29.5066 261.665 28.8079V28.5759C261.665 27.8559 261.887 27.3199 262.329 26.9679C262.777 26.6106 263.487 26.3626 264.457 26.2239L266.929 25.8719L267.001 26.8159L264.617 27.1599C264.02 27.2453 263.593 27.3919 263.337 27.5999C263.081 27.8026 262.953 28.1039 262.953 28.5039V28.6319C262.953 29.0426 263.079 29.3573 263.329 29.5759C263.585 29.7946 263.967 29.9039 264.473 29.9039C264.921 29.9039 265.305 29.8266 265.625 29.6719C265.945 29.5173 266.204 29.3093 266.401 29.0479C266.599 28.7866 266.732 28.4959 266.801 28.1759L267.001 29.0559H266.753C266.679 29.3973 266.537 29.7146 266.329 30.0079C266.127 30.3013 265.841 30.5386 265.473 30.7199C265.105 30.8959 264.636 30.9839 264.065 30.9839ZM273.097 30.8159H271.105L269.185 23.0079H270.521L272.057 29.8719H272.209L273.809 23.2159H275.641L277.241 29.8719H277.385L278.937 23.0079H280.265L278.345 30.8159H276.361L275.041 25.2639L274.785 24.1519H274.665L274.417 25.2639L273.097 30.8159ZM286.496 30.8159H285.208V20.2159H286.496V30.8159ZM294.573 30.8159H293.285L293.341 28.9199L293.293 28.7199V26.2319L293.301 25.7759C293.301 25.1413 293.138 24.6719 292.813 24.3679C292.493 24.0639 291.983 23.9119 291.285 23.9119C290.725 23.9119 290.21 23.9919 289.741 24.1519C289.277 24.3119 288.863 24.4986 288.501 24.7119L288.621 23.6079C288.823 23.4853 289.063 23.3653 289.341 23.2479C289.623 23.1253 289.943 23.0239 290.301 22.9439C290.663 22.8639 291.061 22.8239 291.493 22.8239C292.053 22.8239 292.527 22.8933 292.917 23.0319C293.311 23.1653 293.629 23.3599 293.869 23.6159C294.114 23.8719 294.293 24.1813 294.405 24.5439C294.517 24.9066 294.573 25.3119 294.573 25.7599V30.8159ZM290.597 30.9839C289.823 30.9839 289.229 30.7973 288.813 30.4239C288.402 30.0453 288.197 29.5066 288.197 28.8079V28.5759C288.197 27.8559 288.418 27.3199 288.861 26.9679C289.309 26.6106 290.018 26.3626 290.989 26.2239L293.461 25.8719L293.533 26.8159L291.149 27.1599C290.551 27.2453 290.125 27.3919 289.869 27.5999C289.613 27.8026 289.485 28.1039 289.485 28.5039V28.6319C289.485 29.0426 289.61 29.3573 289.861 29.5759C290.117 29.7946 290.498 29.9039 291.005 29.9039C291.453 29.9039 291.837 29.8266 292.157 29.6719C292.477 29.5173 292.735 29.3093 292.933 29.0479C293.13 28.7866 293.263 28.4959 293.333 28.1759L293.533 29.0559H293.285C293.21 29.3973 293.069 29.7146 292.861 30.0079C292.658 30.3013 292.373 30.5386 292.005 30.7199C291.637 30.8959 291.167 30.9839 290.597 30.9839ZM300.407 30.9839C299.927 30.9839 299.508 30.9039 299.151 30.7439C298.799 30.5839 298.514 30.3546 298.295 30.0559C298.076 29.7573 297.93 29.4106 297.855 29.0159H297.423L297.815 27.7999C297.842 28.2693 297.951 28.6613 298.143 28.9759C298.34 29.2853 298.602 29.5173 298.927 29.6719C299.252 29.8266 299.62 29.9039 300.031 29.9039C300.682 29.9039 301.178 29.7119 301.519 29.3279C301.866 28.9439 302.039 28.3733 302.039 27.6159V26.1519C302.039 25.4106 301.866 24.8479 301.519 24.4639C301.172 24.0799 300.668 23.8879 300.007 23.8879C299.612 23.8879 299.263 23.9653 298.959 24.1199C298.655 24.2746 298.402 24.4853 298.199 24.7519C298.002 25.0186 297.866 25.3226 297.791 25.6639L297.495 24.7599H297.863C297.943 24.4026 298.084 24.0799 298.287 23.7919C298.495 23.4986 298.778 23.2666 299.135 23.0959C299.492 22.9199 299.935 22.8319 300.463 22.8319C301.402 22.8319 302.116 23.1253 302.607 23.7119C303.098 24.2933 303.343 25.1386 303.343 26.2479V27.5439C303.343 28.6639 303.092 29.5173 302.591 30.1039C302.095 30.6906 301.367 30.9839 300.407 30.9839ZM297.855 30.8159H296.559V20.2159H297.847V22.7599L297.807 24.9999L297.815 25.2479V28.5119L297.799 28.9279L297.855 30.8159ZM27.6805 50.8159H26.3845V45.9599C26.3845 45.5386 26.3258 45.1759 26.2085 44.8719C26.0965 44.5679 25.9098 44.3333 25.6485 44.1679C25.3925 43.9973 25.0405 43.9119 24.5925 43.9119C24.1818 43.9119 23.8272 43.9893 23.5285 44.1439C23.2298 44.2986 22.9872 44.5093 22.8005 44.7759C22.6192 45.0373 22.4912 45.3359 22.4165 45.6719L22.1285 44.7519H22.4645C22.5445 44.3999 22.6912 44.0799 22.9045 43.7919C23.1178 43.4986 23.4032 43.2666 23.7605 43.0959C24.1232 42.9199 24.5632 42.8319 25.0805 42.8319C25.6992 42.8319 26.1978 42.9493 26.5765 43.1839C26.9605 43.4186 27.2405 43.7573 27.4165 44.1999C27.5925 44.6373 27.6805 45.1759 27.6805 45.8159V50.8159ZM22.4565 50.8159H21.1605V40.2159H22.4485V42.7599L22.4085 44.9999L22.4565 45.1039V50.8159ZM32.9717 50.9919C31.7824 50.9919 30.8864 50.7013 30.2837 50.1199C29.6811 49.5386 29.3797 48.7066 29.3797 47.6239V46.2319C29.3797 45.1333 29.6597 44.2879 30.2197 43.6959C30.7797 43.0986 31.5984 42.7999 32.6757 42.7999C33.4011 42.7999 34.0064 42.9359 34.4917 43.2079C34.9771 43.4746 35.3424 43.8559 35.5877 44.3519C35.8331 44.8479 35.9557 45.4399 35.9557 46.1279V46.4159C35.9557 46.5866 35.9477 46.7573 35.9317 46.9279C35.9211 47.0986 35.9051 47.2666 35.8837 47.4319H34.6917C34.7024 47.1759 34.7077 46.9333 34.7077 46.7039C34.7131 46.4746 34.7157 46.2639 34.7157 46.0719C34.7157 45.5973 34.6384 45.1973 34.4837 44.8719C34.3344 44.5413 34.1077 44.2906 33.8037 44.1199C33.5051 43.9439 33.1291 43.8559 32.6757 43.8559C32.0037 43.8559 31.4997 44.0506 31.1637 44.4399C30.8277 44.8293 30.6597 45.3866 30.6597 46.1119V46.8559L30.6677 47.0159V47.7599C30.6677 48.0853 30.7157 48.3786 30.8117 48.6399C30.9077 48.9013 31.0571 49.1279 31.2597 49.3199C31.4677 49.5066 31.7291 49.6506 32.0437 49.7519C32.3637 49.8479 32.7424 49.8959 33.1797 49.8959C33.6864 49.8959 34.1584 49.8293 34.5957 49.6959C35.0331 49.5626 35.4437 49.3813 35.8277 49.1519L35.7077 50.2719C35.3611 50.4906 34.9584 50.6666 34.4997 50.7999C34.0411 50.9279 33.5317 50.9919 32.9717 50.9919ZM35.6117 47.4319H30.0597V46.4559H35.6117V47.4319ZM43.5336 50.8159H42.2456L42.3016 48.9199L42.2536 48.7199V46.2319L42.2616 45.7759C42.2616 45.1413 42.099 44.6719 41.7736 44.3679C41.4536 44.0639 40.9443 43.9119 40.2456 43.9119C39.6856 43.9119 39.171 43.9919 38.7016 44.1519C38.2376 44.3119 37.8243 44.4986 37.4616 44.7119L37.5816 43.6079C37.7843 43.4853 38.0243 43.3653 38.3016 43.2479C38.5843 43.1253 38.9043 43.0239 39.2616 42.9439C39.6243 42.8639 40.0216 42.8239 40.4536 42.8239C41.0136 42.8239 41.4883 42.8933 41.8776 43.0319C42.2723 43.1653 42.5896 43.3599 42.8296 43.6159C43.075 43.8719 43.2536 44.1813 43.3656 44.5439C43.4776 44.9066 43.5336 45.3119 43.5336 45.7599V50.8159ZM39.5576 50.9839C38.7843 50.9839 38.1896 50.7973 37.7736 50.4239C37.363 50.0453 37.1576 49.5066 37.1576 48.8079V48.5759C37.1576 47.8559 37.379 47.3199 37.8216 46.9679C38.2696 46.6106 38.979 46.3626 39.9496 46.2239L42.4216 45.8719L42.4936 46.8159L40.1096 47.1599C39.5123 47.2453 39.0856 47.3919 38.8296 47.5999C38.5736 47.8026 38.4456 48.1039 38.4456 48.5039V48.6319C38.4456 49.0426 38.571 49.3573 38.8216 49.5759C39.0776 49.7946 39.459 49.9039 39.9656 49.9039C40.4136 49.9039 40.7976 49.8266 41.1176 49.6719C41.4376 49.5173 41.6963 49.3093 41.8936 49.0479C42.091 48.7866 42.2243 48.4959 42.2936 48.1759L42.4936 49.0559H42.2456C42.171 49.3973 42.0296 49.7146 41.8216 50.0079C41.619 50.3013 41.3336 50.5386 40.9656 50.7199C40.5976 50.8959 40.1283 50.9839 39.5576 50.9839ZM48.2817 50.9759C47.6791 50.9759 47.1937 50.8853 46.8257 50.7039C46.4577 50.5226 46.1911 50.2479 46.0257 49.8799C45.8604 49.5119 45.7777 49.0533 45.7777 48.5039V43.5759H47.0577V48.3519C47.0577 48.8639 47.1751 49.2426 47.4097 49.4879C47.6444 49.7279 48.0391 49.8479 48.5937 49.8479C48.9084 49.8479 49.2097 49.8133 49.4977 49.7439C49.7911 49.6746 50.0657 49.5759 50.3217 49.4479L50.2017 50.5599C49.9511 50.6879 49.6577 50.7893 49.3217 50.8639C48.9857 50.9386 48.6391 50.9759 48.2817 50.9759ZM50.1217 44.1599H44.4977V43.1199H50.2417L50.1217 44.1599ZM47.0257 43.2479H45.7857L45.7777 41.0559L47.0817 40.8879L47.0257 43.2479ZM59.0241 50.9839C58.5441 50.9839 58.1255 50.9039 57.7681 50.7439C57.4161 50.5839 57.1308 50.3546 56.9121 50.0559C56.6935 49.7573 56.5468 49.4106 56.4721 49.0159H56.0401L56.4321 47.7999C56.4588 48.2693 56.5681 48.6613 56.7601 48.9759C56.9575 49.2853 57.2188 49.5173 57.5441 49.6719C57.8695 49.8266 58.2375 49.9039 58.6481 49.9039C59.2988 49.9039 59.7948 49.7119 60.1361 49.3279C60.4828 48.9439 60.6561 48.3733 60.6561 47.6159V46.1519C60.6561 45.4106 60.4828 44.8479 60.1361 44.4639C59.7895 44.0799 59.2855 43.8879 58.6241 43.8879C58.2295 43.8879 57.8801 43.9653 57.5761 44.1199C57.2721 44.2746 57.0188 44.4853 56.8161 44.7519C56.6188 45.0186 56.4828 45.3226 56.4081 45.6639L56.1121 44.7599H56.4801C56.5601 44.4026 56.7015 44.0799 56.9041 43.7919C57.1121 43.4986 57.3948 43.2666 57.7521 43.0959C58.1095 42.9199 58.5521 42.8319 59.0801 42.8319C60.0188 42.8319 60.7335 43.1253 61.2241 43.7119C61.7148 44.2933 61.9601 45.1386 61.9601 46.2479V47.5439C61.9601 48.6639 61.7095 49.5173 61.2081 50.1039C60.7121 50.6906 59.9841 50.9839 59.0241 50.9839ZM56.4721 50.8159H55.1761V40.2159H56.4641V42.7599L56.4241 44.9999L56.4321 45.2479V48.5119L56.4161 48.9279L56.4721 50.8159ZM69.6586 50.8159H68.3706L68.4266 48.9199L68.3786 48.7199V46.2319L68.3866 45.7759C68.3866 45.1413 68.224 44.6719 67.8986 44.3679C67.5786 44.0639 67.0693 43.9119 66.3706 43.9119C65.8106 43.9119 65.296 43.9919 64.8266 44.1519C64.3626 44.3119 63.9493 44.4986 63.5866 44.7119L63.7066 43.6079C63.9093 43.4853 64.1493 43.3653 64.4266 43.2479C64.7093 43.1253 65.0293 43.0239 65.3866 42.9439C65.7493 42.8639 66.1466 42.8239 66.5786 42.8239C67.1386 42.8239 67.6133 42.8933 68.0026 43.0319C68.3973 43.1653 68.7146 43.3599 68.9546 43.6159C69.2 43.8719 69.3786 44.1813 69.4906 44.5439C69.6026 44.9066 69.6586 45.3119 69.6586 45.7599V50.8159ZM65.6826 50.9839C64.9093 50.9839 64.3146 50.7973 63.8986 50.4239C63.488 50.0453 63.2826 49.5066 63.2826 48.8079V48.5759C63.2826 47.8559 63.504 47.3199 63.9466 46.9679C64.3946 46.6106 65.104 46.3626 66.0746 46.2239L68.5466 45.8719L68.6186 46.8159L66.2346 47.1599C65.6373 47.2453 65.2106 47.3919 64.9546 47.5999C64.6986 47.8026 64.5706 48.1039 64.5706 48.5039V48.6319C64.5706 49.0426 64.696 49.3573 64.9466 49.5759C65.2026 49.7946 65.584 49.9039 66.0906 49.9039C66.5386 49.9039 66.9226 49.8266 67.2426 49.6719C67.5626 49.5173 67.8213 49.3093 68.0186 49.0479C68.216 48.7866 68.3493 48.4959 68.4186 48.1759L68.6186 49.0559H68.3706C68.296 49.3973 68.1546 49.7146 67.9466 50.0079C67.744 50.3013 67.4586 50.5386 67.0906 50.7199C66.7226 50.8959 66.2533 50.9839 65.6826 50.9839ZM78.2689 50.8159H76.7169L73.6289 47.1759H72.8049V46.1679H73.6289L76.5889 43.0079H78.1249L74.5809 46.7759V46.4639L78.2689 50.8159ZM72.9329 50.8159H71.6449V40.2159H72.9329V50.8159ZM80.8399 50.8159H79.5439V43.0079H80.8399V50.8159ZM80.1919 41.7279C79.9252 41.7279 79.7252 41.6586 79.5919 41.5199C79.4639 41.3759 79.3999 41.1813 79.3999 40.9359V40.8959C79.3999 40.6453 79.4639 40.4506 79.5919 40.3119C79.7252 40.1733 79.9252 40.1039 80.1919 40.1039C80.4585 40.1039 80.6585 40.1733 80.7919 40.3119C80.9252 40.4506 80.9919 40.6453 80.9919 40.8959V40.9359C80.9919 41.1866 80.9252 41.3813 80.7919 41.5199C80.6585 41.6586 80.4585 41.7279 80.1919 41.7279ZM89.5086 50.8159H88.2126V45.9599C88.2126 45.5386 88.154 45.1759 88.0366 44.8719C87.9246 44.5679 87.738 44.3333 87.4766 44.1679C87.2206 43.9973 86.8686 43.9119 86.4206 43.9119C86.01 43.9119 85.6526 43.9893 85.3486 44.1439C85.05 44.2986 84.8073 44.5093 84.6206 44.7759C84.434 45.0373 84.3033 45.3359 84.2286 45.6719L83.9966 44.7519H84.2766C84.362 44.3999 84.5113 44.0799 84.7246 43.7919C84.938 43.4986 85.2233 43.2666 85.5806 43.0959C85.9433 42.9199 86.386 42.8319 86.9086 42.8319C87.5273 42.8319 88.026 42.9493 88.4046 43.1839C88.7886 43.4186 89.0686 43.7573 89.2446 44.1999C89.4206 44.6373 89.5086 45.1759 89.5086 45.8159V50.8159ZM84.2846 50.8159H82.9886V43.0079H84.2846L84.2286 44.8799L84.2846 44.9519V50.8159ZM94.5599 48.4799C93.4985 48.4799 92.6825 48.2479 92.1119 47.7839C91.5465 47.3199 91.2639 46.6559 91.2639 45.7919V45.5919C91.2639 45.0533 91.3732 44.5839 91.5919 44.1839C91.8159 43.7839 92.1705 43.4719 92.6559 43.2479C93.1412 43.0186 93.7759 42.8933 94.5599 42.8719L98.5439 42.7439V43.7679L96.1919 43.6879L96.1839 43.7439C96.5519 43.8186 96.8532 43.9466 97.0879 44.1279C97.3225 44.3093 97.4959 44.5359 97.6079 44.8079C97.7252 45.0799 97.7839 45.3973 97.7839 45.7599V45.9359C97.7839 46.7626 97.5119 47.3946 96.9679 47.8319C96.4239 48.2639 95.6212 48.4799 94.5599 48.4799ZM94.5039 52.7839H94.6879C95.1679 52.7839 95.5785 52.7466 95.9199 52.6719C96.2665 52.6026 96.5332 52.4906 96.7199 52.3359C96.9065 52.1813 96.9999 51.9759 96.9999 51.7199V51.6879C96.9999 51.3893 96.8905 51.1599 96.6719 50.9999C96.4585 50.8453 96.0905 50.7439 95.5679 50.6959L93.3599 50.4959L93.7279 50.4799C93.4292 50.5226 93.1652 50.5919 92.9359 50.6879C92.7119 50.7839 92.5359 50.9093 92.4079 51.0639C92.2799 51.2239 92.2159 51.4213 92.2159 51.6559V51.6719C92.2159 51.9439 92.3092 52.1626 92.4959 52.3279C92.6825 52.4933 92.9465 52.6106 93.2879 52.6799C93.6292 52.7493 94.0345 52.7839 94.5039 52.7839ZM94.6639 53.8159H94.4319C93.7279 53.8159 93.1199 53.7546 92.6079 53.6319C92.1012 53.5146 91.7065 53.3199 91.4239 53.0479C91.1465 52.7813 91.0079 52.4213 91.0079 51.9679V51.9359C91.0079 51.6159 91.0825 51.3493 91.2319 51.1359C91.3865 50.9226 91.5919 50.7546 91.8479 50.6319C92.1092 50.5093 92.3999 50.4266 92.7199 50.3839L92.7119 50.3359C92.2745 50.2613 91.9519 50.1333 91.7439 49.9519C91.5359 49.7653 91.4319 49.5253 91.4319 49.2319V49.2239C91.4319 49.0213 91.4772 48.8479 91.5679 48.7039C91.6639 48.5599 91.8052 48.4453 91.9919 48.3599C92.1839 48.2746 92.4265 48.2213 92.7199 48.1999V48.0399L94.2079 48.4159L93.5999 48.3999C93.2372 48.4053 92.9865 48.4506 92.8479 48.5359C92.7092 48.6159 92.6399 48.7386 92.6399 48.9039V48.9119C92.6399 49.0879 92.7385 49.2213 92.9359 49.3119C93.1332 49.4026 93.4692 49.4746 93.9439 49.5279L95.8399 49.7199C96.6665 49.8053 97.2692 50.0053 97.6479 50.3199C98.0265 50.6293 98.2159 51.0879 98.2159 51.6959V51.7359C98.2159 52.2213 98.0719 52.6186 97.7839 52.9279C97.4959 53.2373 97.0879 53.4613 96.5599 53.5999C96.0319 53.7439 95.3999 53.8159 94.6639 53.8159ZM94.5439 47.5199C94.9919 47.5199 95.3625 47.4559 95.6559 47.3279C95.9545 47.1946 96.1785 46.9973 96.3279 46.7359C96.4825 46.4693 96.5599 46.1439 96.5599 45.7599V45.5679C96.5599 45.1946 96.4852 44.8773 96.3359 44.6159C96.1919 44.3546 95.9732 44.1573 95.6799 44.0239C95.3865 43.8853 95.0185 43.8159 94.5759 43.8159H94.5279C94.0479 43.8159 93.6559 43.8906 93.3519 44.0399C93.0532 44.1839 92.8345 44.3893 92.6959 44.6559C92.5625 44.9173 92.4959 45.2239 92.4959 45.5759V45.7599C92.4959 46.1439 92.5705 46.4666 92.7199 46.7279C92.8745 46.9893 93.1039 47.1866 93.4079 47.3199C93.7119 47.4533 94.0905 47.5199 94.5439 47.5199ZM114.177 50.8159H112.881V45.9279C112.881 45.5173 112.828 45.1626 112.721 44.8639C112.62 44.5599 112.449 44.3253 112.209 44.1599C111.975 43.9946 111.657 43.9119 111.257 43.9119C110.879 43.9119 110.551 43.9893 110.273 44.1439C109.996 44.2986 109.772 44.5066 109.601 44.7679C109.431 45.0239 109.311 45.3173 109.241 45.6479L109.041 44.7279H109.201C109.287 44.3919 109.431 44.0799 109.633 43.7919C109.836 43.5039 110.111 43.2719 110.457 43.0959C110.804 42.9199 111.233 42.8319 111.745 42.8319C112.327 42.8319 112.793 42.9466 113.145 43.1759C113.503 43.4053 113.764 43.7413 113.929 44.1839C114.095 44.6213 114.177 45.1546 114.177 45.7839V50.8159ZM104.425 50.8159H103.129V43.0079H104.425L104.369 44.8799L104.425 44.9599V50.8159ZM109.297 50.8159H108.009V45.9279C108.009 45.5173 107.956 45.1626 107.849 44.8639C107.748 44.5599 107.58 44.3253 107.345 44.1599C107.111 43.9946 106.793 43.9119 106.393 43.9119C106.009 43.9119 105.679 43.9893 105.401 44.1439C105.124 44.2986 104.9 44.5093 104.729 44.7759C104.559 45.0373 104.439 45.3359 104.369 45.6719L104.129 44.7519H104.417C104.497 44.3999 104.636 44.0799 104.833 43.7919C105.031 43.4986 105.297 43.2666 105.633 43.0959C105.975 42.9199 106.388 42.8319 106.873 42.8319C107.593 42.8319 108.14 43.0186 108.513 43.3919C108.892 43.7653 109.129 44.3093 109.225 45.0239C109.252 45.1306 109.271 45.2479 109.281 45.3759C109.292 45.4986 109.297 45.6213 109.297 45.7439V50.8159ZM119.472 50.9919C118.282 50.9919 117.386 50.7013 116.784 50.1199C116.181 49.5386 115.88 48.7066 115.88 47.6239V46.2319C115.88 45.1333 116.16 44.2879 116.72 43.6959C117.28 43.0986 118.098 42.7999 119.176 42.7999C119.901 42.7999 120.506 42.9359 120.992 43.2079C121.477 43.4746 121.842 43.8559 122.088 44.3519C122.333 44.8479 122.456 45.4399 122.456 46.1279V46.4159C122.456 46.5866 122.448 46.7573 122.432 46.9279C122.421 47.0986 122.405 47.2666 122.384 47.4319H121.192C121.202 47.1759 121.208 46.9333 121.208 46.7039C121.213 46.4746 121.216 46.2639 121.216 46.0719C121.216 45.5973 121.138 45.1973 120.984 44.8719C120.834 44.5413 120.608 44.2906 120.304 44.1199C120.005 43.9439 119.629 43.8559 119.176 43.8559C118.504 43.8559 118 44.0506 117.664 44.4399C117.328 44.8293 117.16 45.3866 117.16 46.1119V46.8559L117.168 47.0159V47.7599C117.168 48.0853 117.216 48.3786 117.312 48.6399C117.408 48.9013 117.557 49.1279 117.76 49.3199C117.968 49.5066 118.229 49.6506 118.544 49.7519C118.864 49.8479 119.242 49.8959 119.68 49.8959C120.186 49.8959 120.658 49.8293 121.096 49.6959C121.533 49.5626 121.944 49.3813 122.328 49.1519L122.208 50.2719C121.861 50.4906 121.458 50.6666 121 50.7999C120.541 50.9279 120.032 50.9919 119.472 50.9919ZM122.112 47.4319H116.56V46.4559H122.112V47.4319ZM126.647 50.9919C126.018 50.9919 125.469 50.9253 124.999 50.7919C124.53 50.6533 124.141 50.5039 123.831 50.3439L123.711 49.1439C124.101 49.3466 124.527 49.5226 124.991 49.6719C125.461 49.8213 125.991 49.8959 126.583 49.8959C127.186 49.8959 127.639 49.7999 127.943 49.6079C128.247 49.4159 128.399 49.1306 128.399 48.7519V48.6639C128.399 48.4186 128.341 48.2159 128.223 48.0559C128.111 47.8959 127.906 47.7546 127.607 47.6319C127.309 47.5093 126.885 47.3866 126.335 47.2639C125.679 47.1199 125.162 46.9519 124.783 46.7599C124.405 46.5626 124.133 46.3199 123.967 46.0319C123.807 45.7439 123.727 45.3919 123.727 44.9759V44.9039C123.727 44.2213 123.965 43.7039 124.439 43.3519C124.914 42.9999 125.629 42.8239 126.583 42.8239C127.197 42.8239 127.727 42.8933 128.175 43.0319C128.629 43.1706 128.999 43.3253 129.287 43.4959L129.407 44.5919C129.061 44.3893 128.663 44.2213 128.215 44.0879C127.767 43.9546 127.263 43.8879 126.703 43.8879C126.298 43.8879 125.97 43.9306 125.719 44.0159C125.469 44.0959 125.287 44.2133 125.175 44.3679C125.063 44.5173 125.007 44.6986 125.007 44.9119V44.9759C125.007 45.2106 125.063 45.4106 125.175 45.5759C125.287 45.7359 125.487 45.8773 125.775 45.9999C126.069 46.1173 126.474 46.2319 126.991 46.3439C127.658 46.4773 128.186 46.6373 128.575 46.8239C128.97 47.0106 129.253 47.2479 129.423 47.5359C129.594 47.8186 129.679 48.1839 129.679 48.6319V48.7679C129.679 49.5039 129.423 50.0586 128.911 50.4319C128.399 50.8053 127.645 50.9919 126.647 50.9919ZM133.663 50.9919C133.034 50.9919 132.484 50.9253 132.015 50.7919C131.546 50.6533 131.156 50.5039 130.847 50.3439L130.727 49.1439C131.116 49.3466 131.543 49.5226 132.007 49.6719C132.476 49.8213 133.007 49.8959 133.599 49.8959C134.202 49.8959 134.655 49.7999 134.959 49.6079C135.263 49.4159 135.415 49.1306 135.415 48.7519V48.6639C135.415 48.4186 135.356 48.2159 135.239 48.0559C135.127 47.8959 134.922 47.7546 134.623 47.6319C134.324 47.5093 133.9 47.3866 133.351 47.2639C132.695 47.1199 132.178 46.9519 131.799 46.7599C131.42 46.5626 131.148 46.3199 130.983 46.0319C130.823 45.7439 130.743 45.3919 130.743 44.9759V44.9039C130.743 44.2213 130.98 43.7039 131.455 43.3519C131.93 42.9999 132.644 42.8239 133.599 42.8239C134.212 42.8239 134.743 42.8933 135.191 43.0319C135.644 43.1706 136.015 43.3253 136.303 43.4959L136.423 44.5919C136.076 44.3893 135.679 44.2213 135.231 44.0879C134.783 43.9546 134.279 43.8879 133.719 43.8879C133.314 43.8879 132.986 43.9306 132.735 44.0159C132.484 44.0959 132.303 44.2133 132.191 44.3679C132.079 44.5173 132.023 44.6986 132.023 44.9119V44.9759C132.023 45.2106 132.079 45.4106 132.191 45.5759C132.303 45.7359 132.503 45.8773 132.791 45.9999C133.084 46.1173 133.49 46.2319 134.007 46.3439C134.674 46.4773 135.202 46.6373 135.591 46.8239C135.986 47.0106 136.268 47.2479 136.439 47.5359C136.61 47.8186 136.695 48.1839 136.695 48.6319V48.7679C136.695 49.5039 136.439 50.0586 135.927 50.4319C135.415 50.8053 134.66 50.9919 133.663 50.9919ZM140.882 49.6079H141.626L140.946 49.9039L143.282 43.0079H144.618L140.946 53.5679H139.634L140.866 49.9999L141.434 50.4959H139.962L137.41 43.0079H138.754L140.882 49.6079ZM153.274 50.9839C152.794 50.9839 152.378 50.9039 152.026 50.7439C151.674 50.5839 151.389 50.3546 151.17 50.0559C150.951 49.7573 150.805 49.4106 150.73 49.0159H150.306L150.682 47.7999C150.703 48.2693 150.807 48.6613 150.994 48.9759C151.186 49.2853 151.445 49.5173 151.77 49.6719C152.095 49.8266 152.463 49.9039 152.874 49.9039C153.53 49.9039 154.031 49.7119 154.378 49.3279C154.73 48.9439 154.906 48.3813 154.906 47.6399V46.1439C154.906 45.4079 154.733 44.8479 154.386 44.4639C154.039 44.0799 153.535 43.8879 152.874 43.8879C152.479 43.8879 152.13 43.9653 151.826 44.1199C151.522 44.2746 151.269 44.4853 151.066 44.7519C150.869 45.0186 150.733 45.3226 150.658 45.6639L150.338 44.7599H150.714C150.799 44.4026 150.943 44.0799 151.146 43.7919C151.354 43.4986 151.637 43.2666 151.994 43.0959C152.357 42.9199 152.802 42.8319 153.33 42.8319C154.269 42.8319 154.983 43.1253 155.474 43.7119C155.965 44.2933 156.21 45.1386 156.21 46.2479V47.5439C156.21 48.6639 155.962 49.5173 155.466 50.1039C154.975 50.6906 154.245 50.9839 153.274 50.9839ZM150.714 53.5679H149.426V43.0079H150.722L150.666 44.8879L150.682 45.2879V48.5759L150.674 48.8399L150.714 51.0319V53.5679ZM159.348 50.8159H158.06V40.2159H159.348V50.8159ZM167.424 50.8159H166.136L166.192 48.9199L166.144 48.7199V46.2319L166.152 45.7759C166.152 45.1413 165.99 44.6719 165.664 44.3679C165.344 44.0639 164.835 43.9119 164.136 43.9119C163.576 43.9119 163.062 43.9919 162.592 44.1519C162.128 44.3119 161.715 44.4986 161.352 44.7119L161.472 43.6079C161.675 43.4853 161.915 43.3653 162.192 43.2479C162.475 43.1253 162.795 43.0239 163.152 42.9439C163.515 42.8639 163.912 42.8239 164.344 42.8239C164.904 42.8239 165.379 42.8933 165.768 43.0319C166.163 43.1653 166.48 43.3599 166.72 43.6159C166.966 43.8719 167.144 44.1813 167.256 44.5439C167.368 44.9066 167.424 45.3119 167.424 45.7599V50.8159ZM163.448 50.9839C162.675 50.9839 162.08 50.7973 161.664 50.4239C161.254 50.0453 161.048 49.5066 161.048 48.8079V48.5759C161.048 47.8559 161.27 47.3199 161.712 46.9679C162.16 46.6106 162.87 46.3626 163.84 46.2239L166.312 45.8719L166.384 46.8159L164 47.1599C163.403 47.2453 162.976 47.3919 162.72 47.5999C162.464 47.8026 162.336 48.1039 162.336 48.5039V48.6319C162.336 49.0426 162.462 49.3573 162.712 49.5759C162.968 49.7946 163.35 49.9039 163.856 49.9039C164.304 49.9039 164.688 49.8266 165.008 49.6719C165.328 49.5173 165.587 49.3093 165.784 49.0479C165.982 48.7866 166.115 48.4959 166.184 48.1759L166.384 49.0559H166.136C166.062 49.3973 165.92 49.7146 165.712 50.0079C165.51 50.3013 165.224 50.5386 164.856 50.7199C164.488 50.8959 164.019 50.9839 163.448 50.9839ZM171.835 50.9919C171.206 50.9919 170.656 50.9253 170.187 50.7919C169.718 50.6533 169.328 50.5039 169.019 50.3439L168.899 49.1439C169.288 49.3466 169.715 49.5226 170.179 49.6719C170.648 49.8213 171.179 49.8959 171.771 49.8959C172.374 49.8959 172.827 49.7999 173.131 49.6079C173.435 49.4159 173.587 49.1306 173.587 48.7519V48.6639C173.587 48.4186 173.528 48.2159 173.411 48.0559C173.299 47.8959 173.094 47.7546 172.795 47.6319C172.496 47.5093 172.072 47.3866 171.523 47.2639C170.867 47.1199 170.35 46.9519 169.971 46.7599C169.592 46.5626 169.32 46.3199 169.155 46.0319C168.995 45.7439 168.915 45.3919 168.915 44.9759V44.9039C168.915 44.2213 169.152 43.7039 169.627 43.3519C170.102 42.9999 170.816 42.8239 171.771 42.8239C172.384 42.8239 172.915 42.8933 173.363 43.0319C173.816 43.1706 174.187 43.3253 174.475 43.4959L174.595 44.5919C174.248 44.3893 173.851 44.2213 173.403 44.0879C172.955 43.9546 172.451 43.8879 171.891 43.8879C171.486 43.8879 171.158 43.9306 170.907 44.0159C170.656 44.0959 170.475 44.2133 170.363 44.3679C170.251 44.5173 170.195 44.6986 170.195 44.9119V44.9759C170.195 45.2106 170.251 45.4106 170.363 45.5759C170.475 45.7359 170.675 45.8773 170.963 45.9999C171.256 46.1173 171.662 46.2319 172.179 46.3439C172.846 46.4773 173.374 46.6373 173.763 46.8239C174.158 47.0106 174.44 47.2479 174.611 47.5359C174.782 47.8186 174.867 48.1839 174.867 48.6319V48.7679C174.867 49.5039 174.611 50.0586 174.099 50.4319C173.587 50.8053 172.832 50.9919 171.835 50.9919ZM179.25 50.9759C178.648 50.9759 178.162 50.8853 177.794 50.7039C177.426 50.5226 177.16 50.2479 176.994 49.8799C176.829 49.5119 176.746 49.0533 176.746 48.5039V43.5759H178.026V48.3519C178.026 48.8639 178.144 49.2426 178.378 49.4879C178.613 49.7279 179.008 49.8479 179.562 49.8479C179.877 49.8479 180.178 49.8133 180.466 49.7439C180.76 49.6746 181.034 49.5759 181.29 49.4479L181.17 50.5599C180.92 50.6879 180.626 50.7893 180.29 50.8639C179.954 50.9386 179.608 50.9759 179.25 50.9759ZM181.09 44.1599H175.466V43.1199H181.21L181.09 44.1599ZM177.994 43.2479H176.754L176.746 41.0559L178.05 40.8879L177.994 43.2479ZM184.059 50.8159H182.763V43.0079H184.059V50.8159ZM183.411 41.7279C183.144 41.7279 182.944 41.6586 182.811 41.5199C182.683 41.3759 182.619 41.1813 182.619 40.9359V40.8959C182.619 40.6453 182.683 40.4506 182.811 40.3119C182.944 40.1733 183.144 40.1039 183.411 40.1039C183.677 40.1039 183.877 40.1733 184.011 40.3119C184.144 40.4506 184.211 40.6453 184.211 40.8959V40.9359C184.211 41.1866 184.144 41.3813 184.011 41.5199C183.877 41.6586 183.677 41.7279 183.411 41.7279ZM189.215 50.9919C188.095 50.9919 187.261 50.6906 186.711 50.0879C186.167 49.4799 185.895 48.6213 185.895 47.5119V46.2959C185.895 45.1813 186.17 44.3253 186.719 43.7279C187.269 43.1253 188.101 42.8239 189.215 42.8239C189.546 42.8239 189.847 42.8559 190.119 42.9199C190.391 42.9786 190.634 43.0586 190.847 43.1599C191.066 43.2559 191.25 43.3573 191.399 43.4639L191.511 44.5919C191.261 44.3999 190.962 44.2373 190.615 44.1039C190.274 43.9706 189.871 43.9039 189.407 43.9039C188.661 43.9039 188.103 44.1119 187.735 44.5279C187.373 44.9386 187.191 45.5386 187.191 46.3279V47.4799C187.191 48.2533 187.373 48.8479 187.735 49.2639C188.103 49.6799 188.661 49.8879 189.407 49.8879C189.887 49.8879 190.301 49.8213 190.647 49.6879C190.999 49.5546 191.311 49.3919 191.583 49.1999L191.463 50.3439C191.229 50.5039 190.922 50.6533 190.543 50.7919C190.165 50.9253 189.722 50.9919 189.215 50.9919ZM197.871 50.8159H196.575V43.0079H197.871V50.8159ZM197.223 41.7279C196.956 41.7279 196.756 41.6586 196.623 41.5199C196.495 41.3759 196.431 41.1813 196.431 40.9359V40.8959C196.431 40.6453 196.495 40.4506 196.623 40.3119C196.756 40.1733 196.956 40.1039 197.223 40.1039C197.49 40.1039 197.69 40.1733 197.823 40.3119C197.956 40.4506 198.023 40.6453 198.023 40.8959V40.9359C198.023 41.1866 197.956 41.3813 197.823 41.5199C197.69 41.6586 197.49 41.7279 197.223 41.7279ZM206.54 50.8159H205.244V45.9599C205.244 45.5386 205.185 45.1759 205.068 44.8719C204.956 44.5679 204.769 44.3333 204.508 44.1679C204.252 43.9973 203.9 43.9119 203.452 43.9119C203.041 43.9119 202.684 43.9893 202.38 44.1439C202.081 44.2986 201.839 44.5093 201.652 44.7759C201.465 45.0373 201.335 45.3359 201.26 45.6719L201.028 44.7519H201.308C201.393 44.3999 201.543 44.0799 201.756 43.7919C201.969 43.4986 202.255 43.2666 202.612 43.0959C202.975 42.9199 203.417 42.8319 203.94 42.8319C204.559 42.8319 205.057 42.9493 205.436 43.1839C205.82 43.4186 206.1 43.7573 206.276 44.1999C206.452 44.6373 206.54 45.1759 206.54 45.8159V50.8159ZM201.316 50.8159H200.02V43.0079H201.316L201.26 44.8799L201.316 44.9519V50.8159ZM211.36 50.9759C210.757 50.9759 210.272 50.8853 209.904 50.7039C209.536 50.5226 209.269 50.2479 209.104 49.8799C208.939 49.5119 208.856 49.0533 208.856 48.5039V43.5759H210.136V48.3519C210.136 48.8639 210.253 49.2426 210.488 49.4879C210.723 49.7279 211.117 49.8479 211.672 49.8479C211.987 49.8479 212.288 49.8133 212.576 49.7439C212.869 49.6746 213.144 49.5759 213.4 49.4479L213.28 50.5599C213.029 50.6879 212.736 50.7893 212.4 50.8639C212.064 50.9386 211.717 50.9759 211.36 50.9759ZM213.2 44.1599H207.576V43.1199H213.32L213.2 44.1599ZM210.104 43.2479H208.864L208.856 41.0559L210.16 40.8879L210.104 43.2479ZM217.749 51.0159C216.629 51.0159 215.778 50.7146 215.197 50.1119C214.621 49.5039 214.333 48.6319 214.333 47.4959V46.3039C214.333 45.1733 214.624 44.3066 215.205 43.7039C215.786 43.1013 216.634 42.7999 217.749 42.7999C218.869 42.7999 219.717 43.1013 220.293 43.7039C220.874 44.3066 221.165 45.1733 221.165 46.3039V47.4959C221.165 48.6319 220.874 49.5039 220.293 50.1119C219.717 50.7146 218.869 51.0159 217.749 51.0159ZM217.749 49.9599C218.442 49.9599 218.968 49.7546 219.325 49.3439C219.688 48.9333 219.869 48.3413 219.869 47.5679V46.2319C219.869 45.4639 219.688 44.8773 219.325 44.4719C218.968 44.0613 218.442 43.8559 217.749 43.8559C217.061 43.8559 216.536 44.0613 216.173 44.4719C215.81 44.8773 215.629 45.4639 215.629 46.2319V47.5679C215.629 48.3413 215.81 48.9333 216.173 49.3439C216.536 49.7546 217.061 49.9599 217.749 49.9599ZM228.804 50.9919C228.174 50.9919 227.625 50.9253 227.156 50.7919C226.686 50.6533 226.297 50.5039 225.988 50.3439L225.868 49.1439C226.257 49.3466 226.684 49.5226 227.148 49.6719C227.617 49.8213 228.148 49.8959 228.74 49.8959C229.342 49.8959 229.796 49.7999 230.1 49.6079C230.404 49.4159 230.556 49.1306 230.556 48.7519V48.6639C230.556 48.4186 230.497 48.2159 230.38 48.0559C230.268 47.8959 230.062 47.7546 229.764 47.6319C229.465 47.5093 229.041 47.3866 228.492 47.2639C227.836 47.1199 227.318 46.9519 226.94 46.7599C226.561 46.5626 226.289 46.3199 226.124 46.0319C225.964 45.7439 225.884 45.3919 225.884 44.9759V44.9039C225.884 44.2213 226.121 43.7039 226.596 43.3519C227.07 42.9999 227.785 42.8239 228.74 42.8239C229.353 42.8239 229.884 42.8933 230.332 43.0319C230.785 43.1706 231.156 43.3253 231.444 43.4959L231.564 44.5919C231.217 44.3893 230.82 44.2213 230.372 44.0879C229.924 43.9546 229.42 43.8879 228.86 43.8879C228.454 43.8879 228.126 43.9306 227.876 44.0159C227.625 44.0959 227.444 44.2133 227.332 44.3679C227.22 44.5173 227.164 44.6986 227.164 44.9119V44.9759C227.164 45.2106 227.22 45.4106 227.332 45.5759C227.444 45.7359 227.644 45.8773 227.932 45.9999C228.225 46.1173 228.63 46.2319 229.148 46.3439C229.814 46.4773 230.342 46.6373 230.732 46.8239C231.126 47.0106 231.409 47.2479 231.58 47.5359C231.75 47.8186 231.836 48.1839 231.836 48.6319V48.7679C231.836 49.5039 231.58 50.0586 231.068 50.4319C230.556 50.8053 229.801 50.9919 228.804 50.9919ZM236.514 51.0159C235.394 51.0159 234.544 50.7146 233.962 50.1119C233.386 49.5039 233.098 48.6319 233.098 47.4959V46.3039C233.098 45.1733 233.389 44.3066 233.97 43.7039C234.552 43.1013 235.4 42.7999 236.514 42.7999C237.634 42.7999 238.482 43.1013 239.058 43.7039C239.64 44.3066 239.93 45.1733 239.93 46.3039V47.4959C239.93 48.6319 239.64 49.5039 239.058 50.1119C238.482 50.7146 237.634 51.0159 236.514 51.0159ZM236.514 49.9599C237.208 49.9599 237.733 49.7546 238.09 49.3439C238.453 48.9333 238.634 48.3413 238.634 47.5679V46.2319C238.634 45.4639 238.453 44.8773 238.09 44.4719C237.733 44.0613 237.208 43.8559 236.514 43.8559C235.826 43.8559 235.301 44.0613 234.938 44.4719C234.576 44.8773 234.394 45.4639 234.394 46.2319V47.5679C234.394 48.3413 234.576 48.9333 234.938 49.3439C235.301 49.7546 235.826 49.9599 236.514 49.9599ZM243.051 50.8159H241.763V40.2159H243.051V50.8159ZM246.543 50.8159H245.247V43.0079H246.543V50.8159ZM245.895 41.7279C245.628 41.7279 245.428 41.6586 245.295 41.5199C245.167 41.3759 245.103 41.1813 245.103 40.9359V40.8959C245.103 40.6453 245.167 40.4506 245.295 40.3119C245.428 40.1733 245.628 40.1039 245.895 40.1039C246.162 40.1039 246.362 40.1733 246.495 40.3119C246.628 40.4506 246.695 40.6453 246.695 40.8959V40.9359C246.695 41.1866 246.628 41.3813 246.495 41.5199C246.362 41.6586 246.162 41.7279 245.895 41.7279ZM251.268 50.9839C250.329 50.9839 249.614 50.6933 249.124 50.1119C248.633 49.5306 248.388 48.6826 248.388 47.5679V46.2799C248.388 45.1599 248.636 44.3066 249.132 43.7199C249.628 43.1279 250.358 42.8319 251.324 42.8319C251.804 42.8319 252.22 42.9146 252.572 43.0799C252.924 43.2399 253.209 43.4666 253.428 43.7599C253.646 44.0533 253.793 44.3999 253.868 44.7999H254.292L253.908 45.9919C253.892 45.5333 253.788 45.1493 253.596 44.8399C253.409 44.5253 253.153 44.2879 252.828 44.1279C252.508 43.9679 252.14 43.8879 251.724 43.8879C251.062 43.8879 250.556 44.0799 250.204 44.4639C249.857 44.8479 249.684 45.4133 249.684 46.1599V47.6479C249.684 48.3839 249.857 48.9439 250.204 49.3279C250.556 49.7119 251.062 49.9039 251.724 49.9039C252.118 49.9039 252.468 49.8293 252.772 49.6799C253.076 49.5253 253.326 49.3146 253.524 49.0479C253.726 48.7759 253.865 48.4693 253.94 48.1279L254.26 49.0559H253.876C253.801 49.4079 253.657 49.7306 253.444 50.0239C253.236 50.3173 252.953 50.5519 252.596 50.7279C252.244 50.8986 251.801 50.9839 251.268 50.9839ZM255.172 50.8159H253.876L253.932 48.9279L253.908 48.5119V45.2479L253.916 44.9759L253.884 42.7599V40.2159H255.172V50.8159ZM266.612 50.8159H265.324L265.38 48.9199L265.332 48.7199V46.2319L265.34 45.7759C265.34 45.1413 265.177 44.6719 264.852 44.3679C264.532 44.0639 264.022 43.9119 263.324 43.9119C262.764 43.9119 262.249 43.9919 261.78 44.1519C261.316 44.3119 260.902 44.4986 260.54 44.7119L260.66 43.6079C260.862 43.4853 261.102 43.3653 261.38 43.2479C261.662 43.1253 261.982 43.0239 262.34 42.9439C262.702 42.8639 263.1 42.8239 263.532 42.8239C264.092 42.8239 264.566 42.8933 264.956 43.0319C265.35 43.1653 265.668 43.3599 265.908 43.6159C266.153 43.8719 266.332 44.1813 266.444 44.5439C266.556 44.9066 266.612 45.3119 266.612 45.7599V50.8159ZM262.636 50.9839C261.862 50.9839 261.268 50.7973 260.852 50.4239C260.441 50.0453 260.236 49.5066 260.236 48.8079V48.5759C260.236 47.8559 260.457 47.3199 260.9 46.9679C261.348 46.6106 262.057 46.3626 263.028 46.2239L265.5 45.8719L265.572 46.8159L263.188 47.1599C262.59 47.2453 262.164 47.3919 261.908 47.5999C261.652 47.8026 261.524 48.1039 261.524 48.5039V48.6319C261.524 49.0426 261.649 49.3573 261.9 49.5759C262.156 49.7946 262.537 49.9039 263.044 49.9039C263.492 49.9039 263.876 49.8266 264.196 49.6719C264.516 49.5173 264.774 49.3093 264.972 49.0479C265.169 48.7866 265.302 48.4959 265.372 48.1759L265.572 49.0559H265.324C265.249 49.3973 265.108 49.7146 264.9 50.0079C264.697 50.3013 264.412 50.5386 264.044 50.7199C263.676 50.8959 263.206 50.9839 262.636 50.9839ZM269.83 46.0399L269.534 45.0399L269.854 45.0239C270.025 44.3626 270.318 43.8426 270.734 43.4639C271.15 43.0799 271.702 42.8879 272.39 42.8879C272.561 42.8879 272.713 42.9013 272.846 42.9279C272.985 42.9546 273.107 42.9866 273.214 43.0239L273.294 44.2799C273.161 44.2373 273.011 44.2026 272.846 44.1759C272.686 44.1493 272.507 44.1359 272.31 44.1359C271.723 44.1359 271.211 44.2986 270.774 44.6239C270.342 44.9493 270.027 45.4213 269.83 46.0399ZM269.894 50.8159H268.598V43.0079H269.862L269.798 45.3119L269.894 45.4079V50.8159ZM277.688 50.9759C277.085 50.9759 276.6 50.8853 276.232 50.7039C275.864 50.5226 275.597 50.2479 275.432 49.8799C275.267 49.5119 275.184 49.0533 275.184 48.5039V43.5759H276.464V48.3519C276.464 48.8639 276.581 49.2426 276.816 49.4879C277.051 49.7279 277.445 49.8479 278 49.8479C278.315 49.8479 278.616 49.8133 278.904 49.7439C279.197 49.6746 279.472 49.5759 279.728 49.4479L279.608 50.5599C279.357 50.6879 279.064 50.7893 278.728 50.8639C278.392 50.9386 278.045 50.9759 277.688 50.9759ZM279.528 44.1599H273.904V43.1199H279.648L279.528 44.1599ZM276.432 43.2479H275.192L275.184 41.0559L276.488 40.8879L276.432 43.2479ZM281.914 50.9679C281.636 50.9679 281.431 50.8933 281.298 50.7439C281.17 50.5893 281.106 50.3733 281.106 50.0959V50.0159C281.106 49.7439 281.17 49.5333 281.298 49.3839C281.431 49.2346 281.636 49.1599 281.914 49.1599C282.186 49.1599 282.388 49.2346 282.522 49.3839C282.655 49.5333 282.722 49.7439 282.722 50.0159V50.0959C282.722 50.3733 282.655 50.5893 282.522 50.7439C282.388 50.8933 282.186 50.9679 281.914 50.9679Z" fill="#A7F417"/>
</svg>
